<svg fill="none" xmlns="http://www.w3.org/2000/svg" viewBox="0 0 245 104"><path d="M31.58 58.05h-4.24v16.79h4.24v-16.8ZM21.51 62.86c-.17-.1-1.53-.9-3.56-.9-2.74 0-4.64 1.9-4.64 4.48 0 2.5 1.82 4.48 4.64 4.48 2 0 3.38-.79 3.56-.89v4.5c-.52.16-1.97.6-3.86.6-4.77 0-8.95-3.28-8.95-8.7 0-5 3.79-8.68 8.95-8.68 2 0 3.46.48 3.86.6v4.5ZM65.17 62.86c-.17-.1-1.53-.9-3.56-.9-2.75 0-4.65 1.9-4.65 4.48 0 2.5 1.82 4.48 4.65 4.48 2 0 3.38-.79 3.56-.89v4.5c-.53.16-1.97.6-3.87.6-4.76 0-8.94-3.28-8.94-8.7 0-5 3.79-8.68 8.94-8.68 2 0 3.47.48 3.87.6v4.5ZM79.09 62.02a4.34 4.34 0 0 0-4.38 4.42 4.34 4.34 0 0 0 4.38 4.42 4.34 4.34 0 0 0 4.38-4.42 4.34 4.34 0 0 0-4.38-4.42Zm8.87 4.42c0 4.8-3.7 8.7-8.87 8.7a8.62 8.62 0 0 1-8.87-8.7c0-4.8 3.7-8.7 8.87-8.7 5.16 0 8.87 3.9 8.87 8.7ZM47.65 61.86c-.06-.02-1.84-.5-3.31-.5-1.7 0-2.62.56-2.62 1.37 0 1.02 1.24 1.38 1.94 1.6l1.17.37c2.75.87 4 2.76 4 4.8 0 4.22-3.7 5.64-6.95 5.64a25.3 25.3 0 0 1-4.57-.46v-3.86c.37.09 2.15.62 4 .62 2.1 0 3.08-.62 3.08-1.57 0-.85-.84-1.34-1.9-1.67-.25-.09-.64-.2-.9-.3-2.36-.74-4.33-2.13-4.33-4.9 0-3.15 2.36-5.26 6.26-5.26 2.07 0 4 .5 4.13.54v3.58ZM4.2 40A2.1 2.1 0 0 0 0 40v4.4a2.1 2.1 0 0 0 4.2 0V40ZM15.77 34.22a2.1 2.1 0 0 0-4.21 0v10.2a2.1 2.1 0 0 0 4.2 0v-10.2ZM27.33 26.3a2.1 2.1 0 0 0-4.21 0v22.3a2.1 2.1 0 0 0 4.2 0V26.3ZM38.89 34.22a2.1 2.1 0 0 0-4.21 0v10.2a2.1 2.1 0 0 0 4.2 0v-10.2ZM50.43 40a2.1 2.1 0 1 0-4.2 0v4.4a2.1 2.1 0 1 0 4.2 0V40ZM61.94 34.17a2.1 2.1 0 0 0-4.21 0v10.2a2.1 2.1 0 0 0 4.2 0v-10.2ZM73.5 26.25a2.1 2.1 0 0 0-4.21 0v22.3a2.1 2.1 0 0 0 4.2 0v-22.3ZM85.06 34.18a2.1 2.1 0 0 0-4.21 0v10.2a2.1 2.1 0 0 0 4.2 0v-10.2ZM96.6 39.96a2.1 2.1 0 1 0-4.2 0v4.4a2.1 2.1 0 1 0 4.2 0v-4.4ZM94.24 72.63v.26h-.75v1.95h-.31v-1.95h-.75v-.26h1.8ZM94.4 72.63h.48l.67 1.81.65-1.81h.47v2.2h-.32v-1.8l-.68 1.8h-.29l-.66-1.8h-.01v1.8h-.3v-2.2Z" fill="#000"/></svg>