<svg fill="none" xmlns="http://www.w3.org/2000/svg" viewBox="0 0 245 104"><path d="m124.66 51.95-5.95 6.47V44.17h-2.85V66.4h2.85V60l5.9 6.4h3.64l-6.6-7.21 6.6-7.25h-3.59ZM77.82 55.2a4.73 4.73 0 0 0 3.5-4.8c0-1.02-.32-6.2-6.8-6.2H66.9v22.25h7.78c5.01 0 6.8-3.38 6.8-6.28a5.04 5.04 0 0 0-3.66-4.97Zm-7.94-8.3h4.6c2.81 0 3.79 1.87 3.79 3.5 0 .37-.12 3.46-3.75 3.46h-4.68V46.9h.04Zm4.76 16.82h-4.76v-7.17h4.84c2.98 0 3.75 2.36 3.75 3.62 0 1.35-.81 3.55-3.83 3.55Zm20.49-9.45a5.82 5.82 0 0 0-5.1-2.69c-1.99 0-3.86.81-5.2 2.28a7.91 7.91 0 0 0-2.08 5.34c0 4.23 3.17 7.57 7.25 7.57a5.84 5.84 0 0 0 5.13-2.69v2.33h2.81V51.95h-2.81v2.32Zm-4.77 9.94c-2.77 0-4.76-2.12-4.76-5.01a5.16 5.16 0 0 1 1.3-3.55c.9-.93 2.16-1.5 3.46-1.5 1.3 0 2.57.53 3.47 1.5.85.98 1.3 2.24 1.3 3.55 0 2.89-2 5-4.77 5Zm17.97-12.63c-2.28 0-4.08.98-5.05 2.73v-2.36h-2.86V66.4h2.86v-7.46c0-3.58 2.2-4.8 4.07-4.8 1.59 0 3.54.81 3.54 4.6v7.66h2.85v-8.56c0-2-.32-3.34-1.1-4.4a5.26 5.26 0 0 0-4.31-1.87Zm37.92 2.69a5.82 5.82 0 0 0-5.1-2.69c-1.99 0-3.86.81-5.2 2.28a7.91 7.91 0 0 0-2.08 5.34c0 4.23 3.17 7.57 7.25 7.57a5.84 5.84 0 0 0 5.13-2.69v2.33h2.8V51.95h-2.8v2.32Zm-4.77 9.94c-2.77 0-4.76-2.12-4.76-5.01a5.16 5.16 0 0 1 1.3-3.55c.9-.93 2.16-1.5 3.46-1.5 1.3 0 2.57.53 3.46 1.5.86.98 1.3 2.24 1.3 3.55 0 2.89-1.99 5-4.76 5Zm10.02-20h2.85v22.24h-2.85V44.2Zm12.67 22.24h12.55v-2.7h-9.54v-7h9.53v-2.69h-9.53v-7.12h9.53v-2.7h-12.54v22.2ZM186.25 64c-1.27 0-2.33-.24-2.33-3.05v-6.56h3.75v-2.4h-3.75v-4.8h-2.85v4.8h-2.64v2.4h2.64v7.17c0 2.08.53 3.54 1.6 4.32.89.65 2.03.77 2.92.77.86 0 1.67-.08 2.53-.2h.04v-2.57h-.08c-.57.08-1.18.12-1.83.12Zm5.78-19.43c-1.1 0-2 .94-2 2.04 0 2.69 4.04 2.69 4.04 0 0-1.1-.9-2.04-2.04-2.04Zm-1.38 7.38h2.85V66.4h-2.85V51.95Zm14.25-.37c-2.28 0-4.07.98-5.05 2.73V44.17H197V66.4h2.85v-7.46c0-3.58 2.2-4.8 4.07-4.8 1.6 0 3.55.81 3.55 4.6v7.66h2.85v-8.56c0-2-.33-3.34-1.1-4.4-.94-1.22-2.4-1.87-4.32-1.87Zm19.51 2.69a5.82 5.82 0 0 0-5.09-2.69c-2 0-3.87.81-5.21 2.28a7.91 7.91 0 0 0-2.08 5.34c0 4.23 3.22 7.57 7.25 7.57a5.84 5.84 0 0 0 5.13-2.69v2.33h2.81V51.95h-2.8v2.32Zm-4.8 9.94c-2.78 0-4.77-2.12-4.77-5.01a5.16 5.16 0 0 1 1.3-3.55c.9-.93 2.16-1.5 3.47-1.5 1.3 0 2.56.53 3.46 1.5.85.98 1.3 2.24 1.3 3.55.04 2.89-2 5-4.77 5Zm21.99-9.94a5.82 5.82 0 0 0-5.1-2.69c-1.99 0-3.86.81-5.2 2.28a7.9 7.9 0 0 0-2.08 5.34c0 4.23 3.17 7.57 7.25 7.57a5.85 5.85 0 0 0 5.13-2.69v2.33h2.81V44.17h-2.81v10.1Zm-4.77 9.94c-2.77 0-4.76-2.12-4.76-5.01a5.16 5.16 0 0 1 1.3-3.55c.9-.93 2.16-1.5 3.46-1.5 1.3 0 2.57.53 3.47 1.5.85.98 1.3 2.24 1.3 3.55 0 2.89-2 5-4.77 5ZM23.81 42.94c1.38.57 2.44.57 3.22.13a4.43 4.43 0 0 0 1.79-2.24c-3.38.65-4.15-2.12-6.48-1.88a2.61 2.61 0 0 0-2.24 1.92 5.06 5.06 0 0 0 .29 3.1 2.72 2.72 0 0 1 3.42-1.03Zm-.45-10.5c-1.55-.04-2.93 1.05-3.54 2.68a9.77 9.77 0 0 0-.61 3.43c1.34-2.24 4.03-2.24 5.94-.74 1.02.82 2.33 1.47 3.75 1.22 1.43-.24 2.45-1.22 3.26-2.11-2.53-.09-4.03-1.1-5.5-2.7-.9-.97-1.83-1.74-3.3-1.78Zm4.69.36c1.54 1.92 3.25 2.6 5.3 2.37a7.86 7.86 0 0 0 3.41-1.23 8.67 8.67 0 0 1-4.56-3.21l-1.91-2.65c-2.04-2.77-5.87-2.69-8.11-.25a7.86 7.86 0 0 0-2 3.87c2.45-2.16 5.79-1.5 7.87 1.1Zm-11 15.68c1.3-.73 1.95-1.54 2.12-2.44a4.31 4.31 0 0 0-.66-2.81c-1.58 3.05-4.23 1.91-5.53 3.87-.58.9-.53 2.08.08 2.93a4.98 4.98 0 0 0 2.6 1.75 2.78 2.78 0 0 1 1.39-3.3ZM8.58 42.3c-.98 1.18-.98 2.94-.13 4.48.62.98 1.39 1.88 2.29 2.61-.9-2.44.73-4.56 3.13-5.1 1.26-.28 2.6-.89 3.3-2.15.7-1.26.57-2.69.37-3.87-1.63 1.91-3.38 2.49-5.54 2.6-1.3.09-2.49.33-3.42 1.43Zm3.21-3.42c2.49-.04 4.08-.9 5.14-2.65a8 8 0 0 0 1.18-3.42 8.59 8.59 0 0 1-5.34 1.6l-3.26-.13c-3.42-.16-5.74 2.9-5.21 6.19.2 1.47.81 2.85 1.8 4-.25-3.39 2.35-5.55 5.7-5.59Zm5.38 18.37c.24-1.47 0-2.48-.61-3.18a4.5 4.5 0 0 0-2.6-1.26c1.38 3.14-1.15 4.52-.41 6.72a2.55 2.55 0 0 0 2.36 1.75c1.06 0 2.12-.32 2.97-.93a2.73 2.73 0 0 1-1.7-3.1Zm-10.1 2.77c.33 1.5 1.67 2.6 3.42 2.85a11 11 0 0 0 3.46-.16c-2.48-.82-3.1-3.42-2.03-5.62.57-1.14.9-2.6.36-3.95-.53-1.35-1.75-2.12-2.8-2.7.48 2.5-.17 4.2-1.43 5.96-.74 1.14-1.3 2.24-.98 3.62Zm-.73-4.64c1.5-1.96 1.83-3.75 1.14-5.66a8.36 8.36 0 0 0-1.96-3.06 8.73 8.73 0 0 1-2.12 5.17l-2.16 2.49c-2.24 2.6-1.3 6.31 1.6 7.98a7.76 7.76 0 0 0 4.23 1.1c-2.69-2-2.77-5.37-.73-8.02Zm17.75 7.25c-.97-1.1-1.95-1.6-2.85-1.5-.97.11-1.87.56-2.6 1.25 3.3.9 2.8 3.71 5 4.52 1.03.37 2.17.09 2.86-.73a4.99 4.99 0 0 0 1.1-2.93c-1.1.7-2.6.4-3.5-.61Zm-4.15 9.65c1.39.7 3.1.33 4.36-.9a10.8 10.8 0 0 0 2.04-2.8c-2.2 1.42-4.6.28-5.67-1.92-.57-1.14-1.46-2.32-2.85-2.73-1.38-.4-2.73.04-3.83.49 2.24 1.18 3.18 2.73 3.8 4.8.36 1.27.89 2.4 2.15 3.06Zm-4.07-2.36c-.57-2.4-1.8-3.79-3.75-4.44-1.14-.4-2.4-.53-3.63-.4a8.67 8.67 0 0 1 2.73 4.84l.61 3.22c.62 3.38 4.12 4.97 7.21 3.74a7.74 7.74 0 0 0 3.5-2.64c-3.17.97-5.86-1.1-6.67-4.32Zm16.74-9.37c-1.47.08-2.45.53-2.98 1.26a4.57 4.57 0 0 0-.65 2.81c2.77-2.03 4.65.13 6.64-1.1a2.64 2.64 0 0 0 1.22-2.68 5.23 5.23 0 0 0-1.58-2.7 2.69 2.69 0 0 1-2.65 2.41Zm4.97 9.25c1.38-.66 2.16-2.24 2-4a10.47 10.47 0 0 0-.94-3.34c-.25 2.61-2.65 3.8-5.05 3.26-1.27-.28-2.73-.32-3.92.53-1.18.82-1.67 2.16-2 3.3 2.33-1.02 4.12-.77 6.12.04 1.26.53 2.48.82 3.79.2Zm-4.4 1.75c-2.24-1.06-4.08-.94-5.79.16a8.26 8.26 0 0 0-2.56 2.6c1.87-.32 3.83 0 5.5.9l2.89 1.55c3.05 1.59 6.43-.12 7.41-3.3.45-1.42.49-2.93.12-4.36-1.26 2.98-4.56 3.83-7.57 2.45ZM36.3 52.6c-.85 1.22-1.1 2.24-.85 3.1.32.93.98 1.7 1.8 2.23.11-3.42 2.96-3.58 3.29-5.9a2.61 2.61 0 0 0-1.34-2.6c-.98-.46-2.04-.62-3.1-.46a2.84 2.84 0 0 1 .2 3.63Zm10.3 1.91c.38-1.5-.4-3.1-1.82-4.07-.98-.61-2.08-1.1-3.22-1.39 1.87 1.84 1.3 4.44-.61 5.95-.98.82-1.96 1.96-2.04 3.38-.08 1.43.65 2.65 1.35 3.63.65-2.45 1.95-3.71 3.86-4.77 1.15-.57 2.12-1.34 2.49-2.73ZM45.24 59c-2.24 1.1-3.3 2.61-3.5 4.65a8.48 8.48 0 0 0 .45 3.62 8.66 8.66 0 0 1 4.15-3.75l3.02-1.3c3.18-1.34 3.9-5.13 2.03-7.86a8 8 0 0 0-3.34-2.81c1.6 2.9.17 5.99-2.8 7.45ZM32.36 44.78c.41 1.42 1.06 2.24 1.92 2.6a4.4 4.4 0 0 0 2.89 0c-2.6-2.24-.94-4.56-2.57-6.23a2.63 2.63 0 0 0-2.89-.57 5.3 5.3 0 0 0-2.28 2.16c1.39-.16 2.6.7 2.93 2.04Zm7.95-6.89c-.94-1.22-2.65-1.58-4.32-1.1-1.1.37-2.16.94-3.06 1.67 2.61-.32 4.28 1.76 4.28 4.2 0 1.26.33 2.73 1.39 3.7 1.05.98 2.48 1.15 3.66 1.23-1.5-2-1.67-3.83-1.3-5.99.2-1.34.24-2.57-.65-3.7Zm2.64 3.87c-.53 2.4 0 4.2 1.43 5.62.9.86 1.91 1.51 3.1 1.92a8.45 8.45 0 0 1-.33-5.58l.85-3.18c.9-3.3-1.54-6.23-4.88-6.47a7.79 7.79 0 0 0-4.28.85c3.26.57 4.8 3.59 4.11 6.84Z" fill="#000"/></svg>