<svg fill="none" xmlns="http://www.w3.org/2000/svg" viewBox="0 0 245 104"><path fill-rule="evenodd" clip-rule="evenodd" d="M22.94 39.28c-.56-.5-3.73-1.78-4.66-2.01-2.76 5.74-12.24 4.76-13.2-2.4a7.02 7.02 0 0 1 9.07-7.59c1.45.43 3 1.5 3.43 2.44L8.8 32.99l1.46 4.05 13.7-4.89c-.31-5.35-5.83-10.27-11.88-10.27-13.69-.02-16.83 19.27-3.83 23.61 3.16 1.06 6.44.68 9.2-.65 2.03-.98 4.73-3.42 5.48-5.56Zm46.76-4.41c-1.08-9.42 12.76-10.73 13.95-1.85a7.1 7.1 0 0 1-6.08 7.96 7.04 7.04 0 0 1-7.87-6.11Zm5.72-12.91c-6.28.72-11.62 6.18-10.8 13.4.7 6.2 6.3 11.44 13.47 10.65 6.12-.67 11.5-6.35 10.61-13.42-.78-6.2-6.27-11.43-13.28-10.63Zm0 37.32c4.11-.83 7.46 2.13 8.15 5.42a7.09 7.09 0 0 1-5.5 8.37c-8.89 1.83-12.15-11.86-2.65-13.79Zm-10.83 7.95a12.14 12.14 0 0 0 13.16 11 12.08 12.08 0 0 0 11-13.01 12.11 12.11 0 1 0-24.16 2.01ZM15.4 77.9l.05-5.39c-2.45.7-3.39 1.23-6.06.2-5.44-2.11-6-10.43 0-12.97 4.19-1.78 8.06.86 9.22 3.75 1.03 2.54.53 10.44.56 13.79l5.05.1c.05-3.63.03-7.29 0-10.88-.02-3.79-1.08-5.74-2.8-8.02-2.99-3.94-10.09-6.07-15.79-2.48-10.65 6.69-5.36 24.9 9.78 21.9Zm11.78-23.12c-.35 2.56-.18 13.96.38 16.3 2.25 9.35 16.34 9.96 19.05-.04.59-2.15.64-13.66.37-16.26h-5.25c-.94 7.53 2.43 18.29-4.62 18.34a4.53 4.53 0 0 1-3.8-2.08c-1.6-2.8-.45-11.18-.88-16.26h-5.25Zm19.85-32.25-5.36-.06v11.49c0 1.73-.07 3.58-.84 4.82a4.47 4.47 0 0 1-7.47.03c-.87-1.3-.9-3.1-.9-4.85 0-2.49.33-9.5-.07-11.46l-5.13-.03c-.48 1.42-.15 14.37.26 16.1 2.28 9.83 16.43 9.93 19.08.27.87-3.17.43-12.45.43-16.3ZM62.9 72.9c-1.58-.1-3.2.02-4.4-.74-3.27-2.05-2.75-8.2-2.58-12.27l6.74-.05-.04-5.06-6.72-.05V48.4l-5.35.06c0 3.47-.2 18.87.1 21.02.8 5.66 5.7 9.4 12.33 8.51l-.08-5.1Zm-12.35-27.4 5.35.05c0-4.96-1.07-14.41 1.95-17.16 1.74-1.59 2.82-.83 5.13-1.28v-5.03c-5.87-.92-10.19 2.28-11.7 6.18-1.24 3.18-.73 13.11-.73 17.24Z" fill="#000"/></svg>