<svg fill="none" xmlns="http://www.w3.org/2000/svg" viewBox="0 0 245 104"><path d="M141.22 42.62c-2.35 0-4.61.96-6.25 2.64v-8.9a.52.52 0 0 0-.52-.5h-3.18a.52.52 0 0 0-.53.5V60.4c0 .28.24.51.53.51h3.18c.28 0 .52-.23.52-.51v-1.66a8.7 8.7 0 0 0 6.25 2.64c4.96 0 8.97-4.2 8.97-9.38 0-5.18-4-9.38-8.97-9.38Zm-.74 15a5.54 5.54 0 0 1-5.48-5.55v-.14a5.55 5.55 0 0 1 5.48-5.55 5.55 5.55 0 0 1 5.49 5.62c0 3.1-2.47 5.62-5.49 5.62ZM161.9 42.62c-5.36 0-9.71 4.2-9.71 9.38 0 5.18 4.35 9.38 9.71 9.38 5.37 0 9.72-4.2 9.72-9.38 0-5.18-4.35-9.38-9.72-9.38Zm-.02 15a5.55 5.55 0 0 1-5.49-5.62c0-3.1 2.47-5.62 5.49-5.62a5.57 5.57 0 0 1 5.49 5.62c0 3.1-2.47 5.62-5.49 5.62ZM102.5 43.09h-3.18a.52.52 0 0 0-.52.51v1.66a8.7 8.7 0 0 0-6.25-2.64c-4.96 0-8.97 4.2-8.97 9.38 0 5.18 4.01 9.38 8.97 9.38 2.36 0 4.61-.96 6.25-2.64v1.66c0 .28.24.51.52.51h3.19c.28 0 .52-.23.52-.51V43.6a.52.52 0 0 0-.53-.51ZM93.3 57.62A5.55 5.55 0 0 1 87.8 52c0-3.1 2.47-5.62 5.49-5.62a5.54 5.54 0 0 1 5.49 5.55v.14a5.54 5.54 0 0 1-5.49 5.55ZM118.4 42.62c-2.36 0-4.61.96-6.25 2.64V43.6a.52.52 0 0 0-.53-.51h-3.18a.52.52 0 0 0-.52.51v24.03c0 .28.24.52.52.52h3.19c.28 0 .52-.24.52-.52v-8.89a8.7 8.7 0 0 0 6.24 2.64c4.97 0 8.98-4.2 8.98-9.38 0-5.18-4.01-9.38-8.98-9.38Zm-.74 15a5.54 5.54 0 0 1-5.49-5.55v-.14a5.55 5.55 0 0 1 5.49-5.55 5.55 5.55 0 0 1 5.48 5.62c0 3.1-2.44 5.62-5.48 5.62ZM74.05 42.62a6.22 6.22 0 0 0-5.55 3.5 6.73 6.73 0 0 0-5.99-3.5c-1.95 0-3.78.93-4.92 2.47V43.6a.52.52 0 0 0-.52-.51H53.9a.52.52 0 0 0-.52.51v16.8c0 .28.23.51.52.51h3.18c.29 0 .52-.23.52-.51V50.34c.12-2.24 1.71-4.03 3.66-4.03 2.02 0 3.7 1.65 3.7 3.82V60.4c0 .28.24.51.53.51h3.2c.29 0 .53-.23.53-.51l-.03-10.45c.29-2.06 1.78-3.64 3.61-3.64 2.02 0 3.7 1.65 3.7 3.82V60.4c0 .28.25.51.53.51h3.2c.3 0 .53-.23.53-.51l-.02-11.55c0-3.45-3-6.23-6.68-6.23ZM188.74 60.19l-5.5-8.24 5.45-8.16a.48.48 0 0 0-.14-.66.48.48 0 0 0-.26-.07h-3.68a.8.8 0 0 0-.69.38l-3.2 5.3-3.21-5.28a.8.8 0 0 0-.7-.37h-3.67a.47.47 0 0 0-.4.72l5.46 8.17-5.51 8.23a.48.48 0 0 0 .14.66c.07.04.16.07.26.07h3.68a.8.8 0 0 0 .69-.38l3.28-5.36 3.27 5.36c.15.24.4.38.7.38h3.63c.26 0 .47-.21.47-.47a.6.6 0 0 0-.07-.28ZM22.3 31.26C10.64 31.26 1.2 40.54 1.2 52c0 11.46 9.45 20.74 21.11 20.74S43.41 63.46 43.41 52c0-11.46-9.45-20.74-21.1-20.74Zm10.02 25.83c-7.22 7.09-20.11 4.83-20.11 4.83s-2.33-12.65 4.91-19.77c4.02-3.94 10.67-3.78 14.87.33 4.2 4.1 4.35 10.66.33 14.6Z" fill="#000"/><path d="m24.72 43.41-2.06 4.18-4.25 2.03 4.25 2.03 2.06 4.18 2.07-4.18 4.25-2.03-4.25-2.03-2.07-4.18Z" fill="#000"/></svg>