<svg fill="none" xmlns="http://www.w3.org/2000/svg" viewBox="0 0 245 104"><path d="M45.45 48.73s.05 0 0 0c.05 0 .05 0 0 0Zm-44.16-.3c-.04.06 0 .06.05.06s.1 0 .1.05c.93.24 1.9.53 2.78.78.05 0 .05.04.1 0-1.03-.25-2-.59-3.03-.88Zm58.3 7.81c-2.68-.44-9.46-.44-13.6-.39-.25-.1-.44-.2-.69-.34l-5.32-2.49c.3-.29.59-.53.93-.83 2.63.98 6.73 2.4 9.42 3.32.2.05.58-.3.73-.83.14-.54.1-1.02-.1-1.12 0 0-6.05-2.1-8.34-2.93 1.22-1.07 2.49-2.1 3.7-3.17 1.23-1.07 2.5-2.1 3.71-3.12.64-.54 1.27-1.02 1.9-1.56a58.72 58.72 0 0 1 4.93-3.66c.25-.15.44-.3.69-.39.14-.1.29-.15.44-.2 0-.04-.05 0 0-.04 0 0 .04-.05.1-.05 0-.1.04-.25 0-.34-.1 0-.15.05-.25.05v-.05c-.34.2-.68.34-1.02.53-.05.05-.15.05-.2.1 0 0-.05 0-.05.05l-1.46.73c-.44.24-.93.44-1.37.68-.44.25-.88.44-1.36.69-1.81.97-3.57 1.9-5.32 2.87.2-.14.39-.34.58-.43l.69-.4c1.36-.73 2.68-1.5 4.05-2.24l2.73-1.46c.78-.4 1.6-.83 2.44-1.22.1-.05.24-.15.39-.1 0 0 .05 0 .05.05.04.05.1.05.14.1.05.1.1.29.05.44 0 .05-.05.05-.1.1l-.05.04c-.04.05-.1.05-.1.05l-.68.4c-.43.28-.87.58-1.26.87l-.44.3c-.83.58-1.66 1.21-2.44 1.85L51.5 43.4c-.1.1-.25.2-.34.3-1.18.97-2.3 2-3.47 2.97l-2.3 2c1.86-1.56 3.72-3.07 5.57-4.58a169.54 169.54 0 0 0-4.49 3.85l.59-.44c-.59.59-1.22 1.12-1.8 1.7-.5.45-.93.84-1.37 1.28-.15.1-.3.24-.4.39l-.04.05c.2-.15.34-.3.49-.4.82-.68 1.6-1.4 2.43-2.1l1.96-1.65c.34-.3.68-.54.97-.83l.05-.05.1-.1 1.85-1.56c.98-.83 2-1.6 3.03-2.39.53-.39 1.02-.78 1.56-1.17l.53-.39c.54-.39 1.08-.73 1.66-1.02.2-.1.4-.2.54-.4.1-.19.2-.43.15-.72-.05-.25-.15-.44-.34-.54.1.1.19.2.24.34.05.15.1.3.1.49 0 .05-.05.14-.05.2-.05.14-.15.24-.25.33-.04.05-.1.1-.2.15-.14.1-.24.15-.38.2-.4.2-.78.44-1.12.63-.25.15-.5.34-.74.44a8.78 8.78 0 0 1 1.71-1.17c.15-.1.3-.2.44-.25.15-.1.3-.19.34-.39.1-.2.05-.43 0-.58-.1-.15-.2-.3-.39-.34.25-.1.49-.25.73-.4.15-.09.35-.19.5-.33l.14-.15c.1-.1.14-.2.2-.34.04-.1.1-.25.1-.4 0-.14-.06-.28-.1-.43a.79.79 0 0 0-.2-.34.95.95 0 0 0-.64-.4c-.14-.04-.29-.04-.43-.04-1.37.14-2.44.58-3.57.97.2-.04.5-.2.74-.24l-2.25.88c-.44.2-.83.44-1.17.68.34-.3.68-.58 1.02-.93.3-.29.59-.68.88-1.02.15-.15.25-.34.4-.54.14-.2.24-.39.29-.63a.67.67 0 0 0 0-.44c-.05-.1-.1-.2-.2-.3-.05-.09-.15-.14-.24-.19-.1-.05-.2-.14-.34-.14-.05 0-.15 0-.2.04-.34.05-.59.2-.83.4-.1.04-.2.14-.3.19-.77.54-1.4 1.12-2.09 1.7-1.02.89-2.05 1.81-3.07 2.69-.98.88-1.95 1.7-2.93 2.59-.05.04-.1.1-.15.1-1.36 1.16-2.73 2.38-4.1 3.55-1.02.88-2.04 1.8-3.07 2.69a46.6 46.6 0 0 1 2.25-2.15c.2-.2.39-.34.53-.54.2-.2.34-.39.54-.53.2-.2.39-.34.54-.54.2-.2.39-.34.53-.54 1.47-1.46 2.93-2.92 4.4-4.34l5.46-5.46c.29-.3.53-.54.78-.83.1-.1.2-.2.24-.3.15-.24.25-.48.25-.72v-.25c0-.2-.15-.34-.25-.49l-.1-.1a.55.55 0 0 0-.39-.14c-.14-.05-.34 0-.48.05-.3.1-.5.2-.74.34 0 0-.29.2-.39.3.1-.1.25-.2.35-.3v-.05c.24-.3.34-.68.1-.88-.2-.24-.64-.2-.98.05l-.2.2c-.49.53-.92 1.02-1.41 1.51-.15.15-.25.3-.44.44l-1.32 1.17c-.3.24-.58.54-.88.78-.29.24-.58.54-.88.78-.43.4-.87.78-1.31 1.17-.15.15-.3.25-.44.4.39-.3.73-.54 1.12-.79-.63.59-1.32 1.12-2 1.7-.68.6-1.32 1.18-2 1.72-1.32 1.12-2.59 2.29-3.85 3.41l-.05.05c0-.88-.05-2.54-.05-2.64 0-.1-.25-.19-.54-.19h-.24c.05-1.27.05-2.59.1-3.85 0-.3-.35-.5-.79-.5h-.19c-.05 0-.05 0-.1.06-.05 0-.05.05-.1.05s-.05.05-.1.05c-.04 0-.04.04-.1.04l-.04.05s-.05.05-.05.1 0 .05-.05.1V42.19c-.1-.2-.2-.34-.24-.53a.37.37 0 0 1-.1-.2c-.05-.34-.05-.73-.05-1.07 0-.34-.05-.73-.05-1.07-.05-.74-.1-1.42-.1-2.15-.1-1.95-.24-3.9-.29-5.9v-.25c0-.1 0-.2.05-.24.2-2 .64-5.95.64-6.05 0-.78-.4-1.41-.93-1.46-.54 0-.98.58-1.03 1.36 0 .15.15 2.93.25 4.4 0 .1.05.24 0 .34 0 .2-.05.43-.1.63-.15-1.07-.34-2.15-.54-3.22-.2-1.02-.39-2.05-.63-3.07-.1-.54-.3-1.08-.59-1.51.15-.74-.29-1.22-.82-1.32-.5-.1-.88.05-1.18.3-.34.23-.63.77-.68 1.16-.1.54 0 1.07.1 1.61.2 1.27.3 2.54.44 3.8.1.74.2 1.42.24 2.15a515.2 515.2 0 0 0-3.95-8.59c-.05 0 0 0 0 0 .49 1.13 1.02 2.25 1.51 3.42-.58-1.07-1.07-2.24-1.6-3.36-.35.14-.64.29-.98.43.05 0 0 0 0 0l4.24 9.76 1.32 3.07c.05.05.05.15.1.2l-3.37-7.22c.83 1.8 1.61 3.6 2.39 5.41 0 .05.05.1.05.2-1.03-2.2-2.1-4.34-3.12-6.54 0-.05 0-.05-.05-.05-.1.05-.15.05-.2.1l-2-4.78c-.34-.68-.97-1.07-1.51-.88-.59.1-.68.83-.59 1.37.1.39.25.78.4 1.17.14.39.29.83.48 1.22.05.1.1.2.1.34.05.1.05.24.15.34-.3-.39-.69-.58-.98-.49-.39.15-.49.78-.34 1.42-.3-.4-.64-.59-.93-.44-.39.15-.49.83-.2 1.56 0 0 0 .05.06.05.04.05.04.1.1.2l.87 2.19c-.24-.4-.44-.78-.68-1.17-.05-.1-.1-.15-.15-.2-.14-.14-.34-.2-.53-.1-.15.1-.3.25-.3.45 0 .1.05.19.05.29.05.1.1.2.1.24.44 1.07.88 2.05 1.32 3.12.87 2.1 1.75 4.15 2.68 6.25.59 1.27 1.12 2.58 1.7 3.85.06.1.1.15.1.24-.68-1.41-1.31-2.82-2-4.24.83 1.9 1.66 3.85 2.5 5.7.04.06.04.1.04.2-.14-.05-.24-.05-.34-.1-.1-.04-.24-.04-.34-.1l-2.68-1.3c-.64-.35-8.25-3.57-8.54-3.72-.05 0-.1-.04-.1-.04-.93-.4-1.17.48-1.07.73-.3-.1-.64-.25-.98-.34-.34-.1-.98-.35-.98-.35-.14-.04-.39.15-.48.44-.05.15-.1.34-.05.44-.4-.1-.78-.2-1.12-.34-.2-.05-.4-.15-.64-.2l-.68-.14c-.25-.05-.49-.1-.73-.05-.25.05-.54.1-.73.3-.2.19-.2.48-.15.77.05.25.2.5.34.73.05.05.1.15.15.2.05.05.1.1.14.2l.2.19c.1.05.14.15.24.2.1.04.2.1.3.2.1.04.19.14.34.19.1.04.24.14.39.2l.44.14a6.1 6.1 0 0 0 .58.2c-.2-.06-.34-.06-.54-.1-.1.43-.29 1.02-.29 1.02s7.27 3.12 10.98 4.63c-2.15-.68-4.34-1.36-6.49-2.05-.73-.24-1.46-.43-2.15-.68a30.8 30.8 0 0 0-4.63-1.07c-.44-.05-.88-.1-1.32-.1-.2 0-.44-.05-.63-.1-.2-.05-.44-.05-.64-.1-.1 0-.2 0-.29-.04-.1-.05-.2-.05-.3-.1-.43-.15-.92-.3-1.36-.44-.1 0-.14-.05-.24-.05H.7c-.3-.05-.59.25-.68.64-.1.39.1.78.34.83h.09c.69.1 1.32.14 1.96.24.14 0 .29.1.44.15l1.36.43c-.1.2-.14.44-.2.64l-.14.49c0 .05 0 .05-.05.1l1.46.43c3.47 1.03 6.93 2.05 10.35 3.08l-.3.87a84.12 84.12 0 0 1-3.21-1.12c-.54-.2-1.08-.39-1.61-.53-1.08-.35-2.25-.79-3.32-1.13 0 0-.1-.05-.05 0s.15.05.2.1c.92.34 1.85.64 2.77.98.44.14.93.34 1.37.48.05 0 .15.05.2.1-.44-.1-.88-.24-1.32-.39-.88-.24-1.7-.53-2.59-.78l-1.27-.44c-.48-.14-.92-.34-1.41-.49-.24-.1-.68-.24-1.22-.43a9.95 9.95 0 0 0-2.05-.88c-.05 0-.1-.05-.15-.05-.24-.05-.48.14-.58.49-.1.34 0 .63.24.73h.1c.1 0 .1.05.2.05 1.8.48 3.56 1.02 5.31 1.5.2.06.4.1.54.16.88.29 1.8.63 2.63.92-.43-.1-.87-.24-1.31-.34.58.15 1.12.3 1.7.49.3.1.54.2.79.3.29.09.53.19.78.28 1.07.4 2.14.74 3.22 1.13 1.07.39 2.14.73 3.22 1.12 1.07.34 2.14.73 3.22 1.12-2.64 2.39-5.32 4.78-7.71 7.46-.44.49-.88 1.03-1.27 1.56-.05.05-.1.15-.15.2l-.34.3s-.58.43-.68.58c-.1.14.05.48.34.68.3.2.63.24.78.1.15-.3.34-.54.49-.83.05-.05.1-.15.14-.2.05-.05.1-.1.2-.14.15-.1.24-.2.39-.3 3.46-2.78 6.88-5.5 10.34-8.34.05-.05.15-.14.2-.14l.1.05c.1.04.24.1.34.1-.83.87-1.66 1.75-2.44 2.68-.2.24-.4.43-.64.68-.39.44-.83.88-1.22 1.36-.2.25-.39.44-.58.69.05 0 .1-.1.15-.1a279.65 279.65 0 0 1-4.5 4.58l.25.25c-.68.63-1.41 1.32-2.15 1.95l.2.2-.88.73c-.05.05-.15.1-.15.1-.14.14-.04.53.25.87.24.3.54.49.73.44-.49.49-1.07 1.03-1.56 1.51l-.24.25c-.15.2-.25.68-.15.97 0 .05.05.2.15.25-.4.34-.79.63-1.18.97l-.1.1c-.1.15-.04.39.15.63.2.25.5.4.64.3 0 .1 0 .24.1.39.14.2.29.29.43.24h.05c.05 0 .05-.05.05-.05a286.7 286.7 0 0 0 4-3.22l1.37-1.07c-.44.58-.83 1.22-1.27 1.76l-.15.14c-.2.2-.39.34-.53.54-.4.39-.74.73-1.13 1.07l-.92.93c-.05.05-.2.14-.2.14-.29.35-.29.83 0 1.13h.05s.05 0 .05.05c0 0 .05 0 .05.04h.54s.04 0 .04-.05c0 0 .05 0 .05-.04 0 0 .05 0 .05-.05l.05-.05.05-.05.05-.05v-.1l.05-.05s0-.04.05-.04c0 0 0-.05.04-.05 0 0 0-.05.05-.05l.05-.05.05-.05.05-.05.05-.05.05-.05.05-.05c0-.04.04-.04.04-.1 0-.04.05-.04.05-.09 0-.05.05-.05.05-.1s.05-.05.05-.1c0-.04.05-.04.05-.1 0-.04.05-.04.05-.09 0-.05.05-.05.05-.1s.05-.05.05-.1c0-.04.05-.04.05-.1 0-.04.04-.04.04-.09 0-.05.05-.05.05-.1s.05-.05.05-.1c0-.04.05-.04.05-.1 0-.04.05-.04.05-.1 0-.04.05-.04.05-.09 0-.05.05-.05.05-.1 0-.04.05-.04.05-.1 0-.04.04-.04.04-.1 0-.04.05-.04.05-.09 0-.05.05-.05.05-.1 0-.04.05-.04.05-.1 0-.04.05-.04.05-.1 0-.04.05-.04.05-.09 0-.05.05-.05.05-.1 0-.04.05-.04.05-.1 0-.04.04-.04.04-.1 0-.04.05-.04.05-.09 0-.05.05-.05.05-.1.15-.2.3-.44.49-.58.2-.15.34-.34.54-.54.53-.53 1.07-1.02 1.6-1.56.54-.54 1.08-1.02 1.62-1.56l.53-.54c.34-.34.74-.68 1.08-1.02l.53-.54c.34-.34.74-.68 1.08-1.02.53-.54 1.07-1.03 1.6-1.56l.25-.25c.24-.24.54-.53.83-.78l.54-.53c.1-.1.2-.15.29-.25A44.6 44.6 0 0 1 29.01 62c.68-.54 1.36-1.12 2.04-1.66-4.78 4.93-9.56 9.85-14.29 14.83l-.05.05-.05.05.05-.05c1.32-1.32 2.68-2.64 4-3.95l2.49-2.5c.49-.48.98-1.02 1.46-1.5.69-.69 1.32-1.37 1.96-2 1.31-1.32 2.63-2.69 3.95-4l1.9-1.9.1-.1.14.29c.05.1.05.2.05.3l.15.72c.24 2.15.58 5.32.63 5.56.1.83.25 1.71.4 2.54.29 1.95 1.65 9.66 1.9 10.15.1.24.34.53.63.53.3.05.63-.29.68-.58.05-.4-.1-.78-.1-1.17V73.8c0-.53-.04-1.07-.1-1.6-.09-1.08-.24-2.15-.38-3.23-.05-.29-.2-2-.2-2.24l5.13 10c.1.1.34.1.68 0 .3-.15.54-.34.49-.49-1.37-3.36-2.74-6.78-4.1-10.1.93 1.18 1.8 2.4 2.68 3.61l.15.25c.05.1.1.2.1.3a68.73 68.73 0 0 0 1.7 3.8 37.14 37.14 0 0 1-1.95-3.96c.4.93.73 1.86 1.12 2.78a20.96 20.96 0 0 0 2.15 3.71c.2.25.49.54.73.73.25.2.69.4 1.12.3.25-.05.44-.2.59-.4.15-.19.24-.43.2-.73 0-.29-.1-.53-.2-.78.3-.1.54-.24.83-.39.05 0 .1 0 .1-.05-.54-1.12-1.13-2.29-1.61-3.41-.54-1.12-1.13-2.3-1.61-3.41l-1.61-3.42c-.54-1.12-1.13-2.24-1.66-3.36.2.1.44.14.63.2 2.4 4.97 4.83 9.9 7.27 14.82-2.3-4.93-4.58-9.8-6.88-14.68 2.59.83 5.17 1.7 7.8 2.53-1.3-.48-2.63-.92-3.94-1.41-1.32-.49-2.64-.93-3.95-1.37-.15-.29-.3-.63-.44-.92 1.17.39 2.34.73 3.5 1.12l.5.14c1.7.54 3.41 1.03 5.12 1.52.34.1.68.2 1.02.34.69.2 1.32.44 2 .63.69.25 1.32.44 1.96.69.48.19.97.34 1.46.53.15.1.34.2.34.2h.1c.34 0 .83-.64 1.07-1.47.3-.92.2-1.8-.14-1.9l-.25-.05c.1-.39.05-.73-.2-.78 0 0-5.56-1.8-8.24-2.63-.39-.1-.78-.25-1.17-.34-1.51-.5-3.07-.98-4.59-1.42h.5a331.6 331.6 0 0 0 6.33 2c1.03.34 3.13 1.03 3.18 1.03h.1a.5.5 0 0 0 .24-.3c.05-.2.05-.34 0-.44 0 0 0-.04-.05-.04h-.05l-.88-.3c-1.02-.34-2.05-.68-3.07-1.07-.69-.24-1.37-.49-2.05-.68-.25-.1-.49-.15-.73-.25 7.27-.2 14.44-.68 11.7-1.17ZM15.26 52.4c-.4-.1-.78-.25-1.17-.34.1 0 .2.05.29.1.2.04.39.1.63.19.1.05.2.05.3.1 0-.05-.05-.05-.05-.05Zm17.37-14.34c0-.15.05-.34.05-.49.04-.24.04-.44.1-.68.09.58.14 1.22.29 1.8.04.2.04.4.04.59l-.44-.93c0-.05-.04-.1-.04-.15v-.14Zm-.2 1.51c0-.1.05-.3.05-.4.2.4.39.84.59 1.23.04.05.04.1.1.15v.19c0 .2 0 .4.04.63-.24-.48-.49-1.02-.73-1.56-.05-.1-.05-.14-.05-.24Zm-.24-6.3c-.05.35-.1.74-.1 1.08l-.15 1.51c.1-.88.25-1.8.34-2.68.05.15 0 .39 0 .59l-.29 2.97-.14-.3c0-.04-.05-.09-.05-.09 0-.05 0-.15.05-.24.14-1.13.29-2.3.39-3.37 0 .15-.05.34-.05.54Zm-1.95 1.67c-.05-.25-.05-.5-.1-.74.49.98.93 1.96 1.41 2.88 0 .15-.05.34-.05.49-.43-.83-.87-1.76-1.26-2.63Zm1.12 3.41c0 .1-.05.2-.05.24-.3-.63-.59-1.26-.83-1.95 0-.05-.05-.1-.05-.14-.05-.1 0-.2-.05-.3.34.74.64 1.47.98 2.15Zm-1.61-3.46c.14.24.24.53.34.78v.2c-.15-.3-.24-.54-.4-.84.1-.05.06-.1.06-.14Zm.2-1.13c0 .25.04.44.04.64-.14-.24-.24-.54-.39-.83 0-.2-.05-.44-.05-.63.1.29.25.58.4.83Zm-.54-1.9c0-.2-.05-.39-.05-.63.14.3.29.58.39.88 0 .14.05.34.05.48-.15-.2-.25-.48-.4-.73Zm.48.69c.3.63.59 1.26.88 1.95h-.05c-.05-.1-.1-.2-.2-.34-.14-.3-.33-.64-.48-.98a.37.37 0 0 1-.1-.2c0-.04 0-.14-.05-.24.05-.05 0-.15 0-.2Zm1.57 6.04c.04.1.1.25.19.4 0 .1-.05.19-.05.29-.05-.15-.1-.25-.2-.4.06-.1.06-.19.06-.29Zm.14-.63c0-.05-.05-.05-.05-.1s0-.2.05-.24c0-.1 0-.2.05-.25.05.1.1.25.2.4 0 .14-.05.34-.05.48-.1-.1-.15-.2-.2-.29Zm-8-16.05c-.05 0-.05-.1-.05-.1 0-.04-.05-.04 0-.1l.05.06.15.39 1.31 3.22-1.46-3.47Zm1.61 2.05c-.2-.39-.39-.83-.59-1.27-.14-.34-.34-.73-.48-1.07 0 0 0-.05-.05-.1 0-.05 0-.05.05-.05.05.05.05.1.05.15a72.66 72.66 0 0 1 1.56 3.41l2.2 4.74c.14.34.33.68.48 1.02 0 .05.05.1.1.15v.14c0 .15.05.3.05.44-1.13-2.54-2.25-5.02-3.37-7.56Zm3.56 1.56c.05.05.05.15.05.25 0-.2-.05-.4-.05-.59-.1-.78-.2-1.51-.24-2.3-.05-.24 0-.53.14-.77.1-.2.35-.34.59-.34.39 0 .73.53.88.82.1.2.14.4.24.64.05.2.1.44.2.63.24.88.48 1.76.68 2.69.2.92.39 1.85.54 2.83.14.82.24 1.65.39 2.53 0 .1.05.25.05.34 0 .1 0 .15-.05.25l-.44 3.6c-.54-1.12-1.12-2.33-1.66-3.5-.05-.1-.1-.15-.1-.25-.05-.1-.05-.24-.05-.39-.1-.88-.24-1.8-.34-2.68-.14-1.08-.3-2.1-.39-3.17 0 .24.05.48.1.73l.58 5.17c-.1-.24-.24-.49-.34-.78 0-.05-.05-.1-.05-.1v-.2l-.29-2.63c-.3-.88-.39-1.85-.44-2.78Zm-2.49 6.93c.05.1.15.3.15.39.93 2.24 1.85 4.49 2.83 6.73.15.3.24.59.39.93 0 .05.05.1.05.14 0 .1 0 .15.05.3-1.12-2.83-2.3-5.56-3.42-8.35-.05-.1-.05-.1-.05-.14-.05 0-.05-.05 0 0Zm1.52 22.34c.1-.1.2-.25.34-.34.1.05.2.05.24.1 0 0 0 .04-.05.04-.1.15-.24.25-.39.4-.05-.05-.14-.05-.24-.1 0-.05.1-.1.1-.1Zm-.25 0-.05.05c0-.05.05-.05.05-.05.1-.15.25-.24.34-.4-.05.1-.2.25-.34.4Zm-1.32-22.4s-.04-.04-.04-.09c.04.05.04.1.04.1Zm-.04-.14c0 .05 0 0 0 0Zm-.05-.05c0-.04 0 0 0 0Zm0-.1c0 .06 0 0 0 0Zm-.05-.04c0-.05 0 0 0 0Zm0 0c0 .05 0 0 0 0Zm.78 6.68c.39.78.68 1.66 1.02 2.49l-.58-1.17c-.2-.4-.34-.83-.54-1.22l-1.02-2.49c.39.78.73 1.56 1.12 2.39Zm-.98.73.59 1.27c.2.44.39.88.54 1.32a81.83 81.83 0 0 1-2-3.52c-.1-.19-.25-.39-.35-.58l-.29-.63c-.73-1.76-1.46-3.47-2.15-5.27 0-.05.05.05.05.05.4.78.78 1.6 1.17 2.39.44.83.83 1.66 1.22 2.48.44.78.83 1.61 1.22 2.5ZM21.83 22.4c.25.58.5 1.22.74 1.85.04.1.04.2.1.25-.25-.73-.5-1.42-.79-2.15h.05c.68 1.56 1.37 3.07 2.05 4.68l-.3.15-.72-1.76c-.1-.2-.15-.39-.25-.58-.14-.4-.34-.78-.53-1.17-.2-.4-.35-.78-.35-1.27Zm-.29.1c.64 1.46 1.27 2.92 1.9 4.44 0 .04.05.14.1.24v.05c0 .05 0 0-.05.05-.05 0-.05 0-.05-.05-.04-.05-.04-.2-.1-.25-.53-1.56-1.16-3.02-1.8-4.48Zm-1.17 8.97c.05.05.05.1.05.1.15.3.34.59.44.88l.44 1.07c-.3-.68-.59-1.36-.93-2.05Zm.63 1.08c.4.73.83 1.5 1.22 2.24.05.15.15.24.2.39a194.5 194.5 0 0 0 4 9.22c.1.24.24.49.34.73 0 0 .05.05 0 .05s-.05-.05-.1-.05c-2-4.1-3.85-8.34-5.66-12.58Zm1.03 13.95.63.29 3.8 1.75-1.06.69c-.15-.05-.25-.1-.4-.2-.43-.2-.87-.39-1.36-.58-.3-.15-.59-.25-.93-.4-.88-.38-1.8-.82-2.63-1.26-.2.05-.44 0-.64-.1a10.18 10.18 0 0 1-1.56-.73c-.44-.24-.88-.44-1.32-.68-.14-.1-.34-.15-.48-.25 1.8.4 3.56.78 5.27 1.27.2.05.44.15.68.2Zm4.1 3.9c-.15-.05-.3-.1-.49-.2-.15-.05-.24-.1-.4-.14.06 0 .06 0 .1-.05.3.1.54.24.79.39Zm-8.5-6.98c.06 0 .1.05.2.05.05.05.15.05.2.05.05 0 .1.05.1.1l.34.3c-.34-.16-.73-.35-1.08-.5.1.05.2 0 .25 0Zm-3.3-.44c.28.15.58.3.92.44.92.4 1.8.83 2.73 1.27-1.51-.3-3.03-.58-4.59-.88-.1 0-.2-.05-.29-.05-.05 0-.1-.04-.15-.1l3.18.25s-1.71-.78-3.66-1.6l.44.14a6.18 6.18 0 0 1 1.41.53Zm-3.47-2.58c.83.3 1.66.58 2.44.88-.1 0-.2-.05-.35-.1l-1.02-.3h.05c-.15-.04-.2-.04-.3-.1-.14 0-.29-.04-.38-.04-.1-.05-.2-.1-.35-.15-.04-.05-.1-.05-.14-.05-.15-.04-.3-.14-.49-.19l-.34-.15c.3-.05.63.1.88.2Zm5.12 5.95c.24.15.58.3.83.49-.54-.25-1.12-.49-1.66-.73-1.66-.74-3.37-1.42-5.07-2.15.1 0 .2.05.34.05l1.17.24c.2.1.39.2.63.25.15.04.34.04.54.04.15 0 .34 0 .49.05l1.31.88.15.05 2.83 1.17 3.07 1.42-4.68-1.9c0 .1.05.14.05.14Zm1.95 5.12a3935.66 3935.66 0 0 0 1.37.39h-.05a3.6 3.6 0 0 1-.68-.2c-.25-.04-.44-.14-.64-.19Zm.68.25c1.71.48 3.47.97 5.18 1.5v.06c-.05.05-.2.14-.25.2-1.66-.64-3.27-1.18-4.93-1.76Zm1.76 2.48c.59.15 1.17.34 1.8.5l-.1.09a68.6 68.6 0 0 1-1.7-.59Zm2.93 1.47-6.1 4.92c.68-.63 1.32-1.31 2-1.95l.34-.34c.1-.1.24-.2.34-.34l1.32-1.32c.34-.34.68-.63 1.02-.97.1-.1.25-.2.35-.3.24.1.48.15.73.3 0-.05.05-.05 0 0Zm.39-.34c-.25-.1-.54-.2-.78-.25 0-.05.1-.1.1-.15.29.1.58.15.87.25-.05.05-.1.1-.2.15Zm-.54-4.2c-2.3-.73-4.58-1.41-6.88-2.2 3.08.93 6.15 1.86 9.17 2.83-.04.05-.04.05-.14.05l-.44-.14c-.59-.2-1.17-.4-1.7-.54Zm1.22 2.59c0-.05.05-.05.05-.05l.2-.2 1.02.3c-.15.1-.24.19-.4.29-.28-.15-.58-.25-.87-.34Zm.44 2c.1-.1.15-.15.24-.2.1.05.25.05.35.1-.05.1-.15.14-.2.24l-.39-.14ZM12.86 74.19l1.9-1.6c2.15-1.86 4.24-3.71 6.4-5.57-.16.25-.35.49-.55.78-.04.05-.04.1-.04.1l-.15.15c-.73.63-1.51 1.26-2.25 1.9.1-.1.25-.15.35-.25-.5.4-.93.83-1.42 1.22l-4.44 3.52c0-.1.1-.2.2-.25Zm.92-.53-1.9 1.6-.05.05v-.1c0-.04.05-.04.05-.04.05-.05.1-.05.15-.1.05-.05.1-.05.14-.1.64-.48 1.32-1.02 1.96-1.56-.15.1-.25.15-.35.25Zm.35-.3c-.05.05 0 0 0 0Zm4.2-3.12-1.62 1.32c-.73.58-1.41 1.17-2.15 1.75.1-.1.2-.14.25-.2.3-.19.54-.43.78-.62l1.02-.88c.35-.3.69-.64 1.03-.88.34-.3.73-.59 1.12-.83-.1.05-.3.2-.44.34Zm-.06-.1c0-.05.05-.05.1-.1.24-.19.49-.43.78-.63l.78-.63c0 .05-.1.1-.15.14l-1.5 1.22Zm1.42.4c.1-.15.2-.3.34-.44.05-.05.05-.1.1-.15.05-.05.1-.05.14-.1l.93-.73c-.49.44-.98.93-1.51 1.41Zm1.12-8.79-.15.15s.05-.05.05-.1l.59-.58c.1-.1.24-.2.34-.34.44-.44.88-.88 1.32-1.37.53-.59 1.07-1.12 1.6-1.7l.35-.35c.1-.1.2-.24.34-.34.15-.2.34-.34.49-.49.05-.05.1-.14.14-.14 0 0 .05 0 .1.04-.3.35-.63.69-.93 1.03l1.03-1.03.24.1c-.34.4-.68.69-1.02 1.08 0 .04-.05.04-.05.1 0 .04-.05.04-.05.09l-.15.15a76.94 76.94 0 0 0-4.24 3.7Zm6-7.65-.34.34c-.05 0-.05 0-.1-.05.15-.15.3-.25.44-.34.05 0 0 .05 0 .05Zm.05 1.95c0 .05-.05.05-.05.1l-.2.19c-.1 0-.14-.05-.24-.1-.05 0 0 0 0-.05.05-.1.15-.14.25-.24.1 0 .14.05.24.1Zm-.44-.15h.05c-.1.1-.15.2-.25.3h-.04c0-.06.04-.06.04-.06.1-.1.15-.2.2-.24Zm-2.34 9.02c-.05.1-.15.15-.25.2-.24.2-.48.39-.68.58.05-.1.1-.14.15-.24 0-.05.05-.05.05-.1.05-.05.1-.1.2-.14.14-.05.33-.15.53-.3Zm2.78-1.8-4.25 3.37c.1-.15.2-.3.35-.4.44-.39.92-.82 1.41-1.21.15-.15.34-.3.54-.44.78-.5 1.51-1.03 2.24-1.52-.14.05-.24.1-.3.2Zm.44-10.73c-.4-.1-.78-.25-1.12-.34-.05 0 .04-.05.04-.05.4.1.79.24 1.08.39.05-.05.05 0 0 0Zm.05-2.4s-.1-.04-.15-.04c-.34-.1-.63-.2-.98-.34.35-.15.74-.34 1.03-.49l.3.63c0 .05-.06.05-.1.1 0 .05-.05.1-.1.15Zm.05 11.76c.14-.14.24-.24.39-.34.34-.29.73-.58 1.12-.88l-.25.25 2.83-2.4.4.15a358.3 358.3 0 0 1-4.5 3.22Zm5.22-3.9c-.15.15-.25.3-.4.4l-.38-.15c.14-.15.34-.3.48-.44.1.05.25.05.34.1 0 .04-.04.04-.04.1Zm-.25-16.88c0-.05-.05-.1-.05-.14v-.4c.34.69.64 1.37.93 2 0 .25.05.5.05.74-.3-.73-.63-1.46-.93-2.2Zm3.52 21.08v.73c-.4-.73-.74-1.47-1.13-2.2a12.47 12.47 0 0 1 1.12 1.46Zm-1.08-3.61.15.34c-.1-.15-.2-.25-.3-.4.05.06.1.06.15.06Zm-.73-16.4c.1.2.2.45.34.69v.24c-.1-.24-.2-.48-.34-.73v-.2Zm.15 1.47a.37.37 0 0 1-.1-.2v-.24c0-.2 0-.44-.05-.63.05.14.15.34.24.49.05.04.1.14.1.19V43.56c0 .05-.1.1-.15.1 0 0 0-.1-.04-.15Zm.1 16.44c.04 0 .04.05.1.1 0 .05.04.05.09.1 0 .04 0 .1.05.1.05.09.1.24.14.33-.2-.2-.29-.39-.39-.63Zm.92 4.39c-.1-.2-.3-.68-.49-1.32l-.14-.68c.39.68.78 1.51 1.17 2.24.05.1.1.2.14.34v.78c-.24-.53-.53-1.12-.68-1.36Zm9.42 9.46.34.49c.34.44.68.88.97 1.32.15.24.35.44.44.73 0 .05-.05-.05-.05-.05-.34-.4-.68-.78-.97-1.17-.34-.44-.59-.98-.88-1.46l.15.14Zm-4.5-17.7 1.67.43-.05.05c-.54-.14-1.07-.34-1.61-.48Zm.84 2.68c-.25-.05-.44-.15-.69-.2l-.29-.53c.25.1.49.14.73.2.1.19.2.33.25.53Zm.1-3.56s.04 0 0 0c-.54-.15-1.08-.34-1.61-.5l-.15-.28c.1 0 .15.05.2.1.53.24 1.07.43 1.56.68Zm-1.13-2.73c-.14.14-.29.24-.44.39-.39-.2-.78-.4-1.22-.54-.14-.3-.24-.59-.39-.83.05-.1.15-.15.25-.2.73.3 1.51.59 2.24.83-.1.1-.24.2-.44.35Zm-.97 2.1c-.15-.06-.34-.1-.49-.15l.24-.25h.05c.05.1.15.25.2.4Zm-.64-.64c-.05.05-.1.1-.2.15l-.04.04-.15-.39c.1.1.25.15.4.2Zm2.78-2.49c-.78-.24-1.56-.54-2.29-.78-.05 0 0-.05.05-.05s.05-.05.1-.05c.73.3 1.51.54 2.24.83-.05 0-.1.05-.1.05Zm2.83.78c1.61.54 4.64 1.61 6.3 2.15.05 0 .1.05.14.05.05 0 .1 0 .15.05a.15.15 0 0 1-.2 0 238.8 238.8 0 0 1-6.4-2.24H44Zm5.76 2.2c.05 0 .15.05.2.05.14.04.34.14.53.2.05 0 .1 0 .1.04-.63-.24-2.73-.93-3.32-1.17l-5.66-2c0-.05.05-.05.1-.05 2.15.83 5.8 2.15 8.05 2.93Zm5.07-14.34c-.1.1-.24.2-.39.29a161.8 161.8 0 0 0-9.07 7.46c-.98.88-2 1.7-2.98 2.59-.04.05-.04.05-.1.05-.77-.25-1.5-.54-2.29-.78 0 0 0-.05.05-.05.1-.1.25-.2.34-.3l1.22-1.07c.3-.24.54-.49.83-.73.15-.1.25-.24.4-.34.68-.59 1.4-1.17 2.1-1.71.14-.1.28-.2.48-.3 3.02-1.75 6.2-3.4 9.41-5.11Zm1.13-1.52c-1.08.59-2.15 1.13-3.22 1.71-.15.1-.3.15-.44.24-.93.5-1.86.98-2.73 1.47.04-.05.1-.1.2-.15.92-.63 1.9-1.17 2.87-1.7.3-.15.54-.3.83-.4.3-.14.54-.24.83-.39.53-.29 1.07-.53 1.66-.78 0-.05 0 0 0 0Zm2.1-3.5c.1 0 .19-.06.29-.06.2-.05.39-.05.58 0 .05 0 .1 0 .1.05h.15c.05 0 .14.1.2.15.14.1.24.24.33.39.05.1.1.14.1.24v.34c-.1.64-.63.93-1.12 1.17-.05 0-.1.05-.1.05-.05 0-.1.05-.14.05a.7.7 0 0 1-.2.1c-.05 0-.1-.05-.2-.05.1-.05.25-.1.3-.15.44-.24.78-.48 1.12-.78a.93.93 0 0 0 .24-.63c0-.3-.2-.54-.34-.68-.05-.05-.1-.15-.2-.15a.7.7 0 0 0-.29-.1c-.29-.05-.63 0-.87.05-.54.1-1.08.25-1.57.4-.68.19-1.31.43-1.95.67 1.08-.39 2.35-.82 3.56-1.07Zm-5.37 3.4.14-.14-.1-.15c.4-.24.84-.53 1.28-.73.43-.2.92-.34 1.41-.53.73-.25 1.46-.5 2.24-.74l.54-.14c.1 0 .2 0 .25-.05v.05c-.15.14-.4.24-.59.34-.44.24-.88.44-1.32.63l-.73.3-.73.29a39.93 39.93 0 0 0-3.51 1.76c.14-.15.39-.35.63-.54.2-.05.34-.2.49-.34Zm-14.15 8.88c.2-.14.39-.34.54-.44.73-.63 1.41-1.21 2.14-1.8.2-.15.34-.3.54-.44.54-.44 1.02-.93 1.56-1.41 1.37-1.27 2.73-2.5 4.15-3.76.68-.63 1.36-1.27 2.1-1.85 1.02-.93 2.1-1.86 3.17-2.73.39-.3.78-.59 1.17-.83a9.68 9.68 0 0 1-2.34 2.53c-.2.15-.35.3-.54.44-.63.59-1.32 1.12-2 1.7l-.05.06-1.12.97c-.68.59-1.42 1.17-2.15 1.8-.68.64-1.41 1.23-2.1 1.81l-1.07.93-2.1 1.8c-1.02.93-2.14 1.76-3.22 2.69a.52.52 0 0 1-.24-.1v-.05c0-.05.1-.05.1-.1.48-.39.97-.83 1.46-1.22Zm-.73 4.69-.34-.15c.04-.05.14-.1.2-.15l.14.3Zm.73-6.34c-.54.53-1.03 1.02-1.51 1.56l-.05.05s0 .04-.05.04c0 0-.05-.04 0-.04l.05-.05c1.07-1.03 2.14-2.1 3.22-3.17-.54.48-1.12 1.07-1.66 1.6Zm-2.24-2.44v-.2c0-.05.1-.1.14-.14.15-.15.3-.3.44-.4.59-.53 1.22-1.07 1.8-1.6.2-.2.4-.35.6-.54.09-.1.19-.2.28-.24.5-.44 1.03-.88 1.52-1.32l-2.4 2.53c-.58.64-1.21 1.27-1.8 1.9-.2.2-.39.45-.58.64v-.63Zm.04 2.83c0-.05.15-.2.25-.25.53-.53 1.02-1.12 1.56-1.66.24-.24.44-.48.68-.73.34-.39.73-.78 1.12-1.17.54-.58 1.03-1.12 1.57-1.66l.24-.24c.59-.64 1.22-1.22 1.85-1.85.3-.3.64-.59.93-.93.93-.93 1.85-1.8 2.83-2.68.15-.15.34-.3.49-.44l1.46-1.32c.34-.3.68-.59 1.03-.83.34-.3.68-.54 1.02-.83-1.8 1.9-3.66 3.76-5.51 5.66-.44.49-.93.93-1.37 1.41l-.24.25c-.05.05-.05.1-.1.14l-6.64 6.64c-.24.24-.48.44-.68.68l-.2.2-.04.05c-.15-.25-.25-.3-.25-.44Zm.5 13.12.53.78c-.2-.05-.34-.1-.54-.2v-.58Zm2.82 10.88c0 .04-.05-.05-.05-.05-.2-.4-.44-.83-.63-1.27-.25-.44-.44-.88-.68-1.32-.44-.88-.93-1.75-1.37-2.63 0-.44-.05-.93-.05-1.37.98 2.15 1.9 4.4 2.78 6.64Zm1.17-3.32-.88-1.17c-.83-1.17-1.7-2.3-2.53-3.47-.05-.1-.15-.24-.2-.39-.1-.24-.2-.48-.29-.78 0-.05-.05-.1-.05-.14v-.69c.3.1.54.2.83.25l2.4 3.46c.19.98.43 1.95.72 2.93Zm-.24-7.76c-.05-.05 0-.05 0 0 .15 0 .34.05.54.1.04 0 .14.05.14.1a3.6 3.6 0 0 1-.68-.2Zm3.6 12.1c-.63-.78-1.26-1.61-1.9-2.4l-.14-.14c-.05-.05-.05-.14-.1-.24-.29-.73-.53-1.46-.78-2.2l2.93 4.98Zm-1.7-9.37c-.2-.04-.44-.14-.63-.2l-.44-.87c.24.05.44.15.63.2l.44.87Zm16.3 1.71c.05-.05.1-.05.14-.05.05.1.05.25 0 .4 0 .09-.05.24-.14.29-.05 0-.2 0-.3-.05-1.36-.34-2.68-.74-4.05-1.08l-3.22-.87-8.53-2.4c-.3-.1-.59-.14-.88-.24h-.05c-.1-.05-.2 0-.2-.1l1.08.3c1.07.29 2.1.58 3.17.83 1.41.39 2.83.73 4.24 1.12 1.42.34 2.83.73 4.25 1.12l1.02.3c.54.14 1.08.28 1.61.38l.54.15c.34.1.68.24 1.02.34.05-.05.05-.1.05-.15 0-.1-.1-.1-.2-.1.25-.04.35-.1.45-.19Zm-.4.1c.06 0 .06 0 .06.05 0-.05-.05-.05-.05-.05Zm-2.19-.68c.15.04.2.04.3.1l1.9.58c-.1 0-.2 0-.35-.05a.37.37 0 0 1-.19-.1 14.6 14.6 0 0 0-1.56-.49c.14.05.3.1.39.15-.15 0-.25-.05-.4-.1-.92-.29-1.85-.58-2.72-.83-1.03-.34-2.1-.63-3.13-.97 1.9.54 3.8 1.12 5.76 1.7Zm-10.73-3.22.39.14c.68.25 1.36.5 2.05.69 2.2.68 4.44 1.36 6.63 2.1a1295.1 1295.1 0 0 1-13.02-3.62c-.05-.05-.05-.1-.05-.14-.05-.15-.15-.25-.2-.4.59.15 1.12.35 1.7.5.79.24 1.62.43 2.5.73Zm1.95-2.83c0-.1-.05-.2-.1-.3 3.12-.1 8.44-.24 9.52-.1 1.07.1-5.71.3-9.42.4M82.67 45.37c3.22.97 5.37 2.48 5.37 5.85 0 4-3.7 6.63-7.66 6.63-3.41 0-6.58-1.41-8.49-3.85l2.44-2.88c1.86 2.2 3.86 3.17 6.15 3.17 1.85 0 3.56-.88 3.56-2.63 0-1.37-.73-2.1-2.49-2.59L78 48c-2.97-.88-5.02-2.4-5.02-5.61 0-3.41 3.07-6.3 7.31-6.3 3.13 0 5.71 1.18 7.42 2.98l-2.3 3.03c-1.46-1.51-3.16-2.44-5.16-2.44-1.9 0-3.22 1.02-3.22 2.44 0 1.22.82 1.85 2.29 2.29l3.36.98ZM94.19 45.5h.04a4.87 4.87 0 0 1 4.2-2.19c3.7 0 6.63 2.98 6.63 7.27 0 4.25-2.92 7.27-6.63 7.27a4.84 4.84 0 0 1-4.2-2.24h-.04v7.36h-3.86V43.66h3.86v1.85Zm3.5 8.89c2.15 0 3.62-1.8 3.62-3.86 0-2-1.47-3.85-3.61-3.85-2.15 0-3.61 1.8-3.61 3.85s1.41 3.86 3.6 3.86ZM112.29 49.17l3.27-.25c0-1.41-.98-2.29-2.93-2.29-1.46 0-2.97.68-4 1.41l-1.32-2.82c1.22-.88 3.56-1.9 6-1.9 3.86 0 6 2.29 6 5.8v8.34h-3.7V55.7h-.05c-.44.88-2.05 2.1-4.05 2.1-2.73 0-4.83-1.51-4.83-4.24 0-2.73 2.73-4.15 5.61-4.4Zm3.27 2.29-2.59.24c-1.66.15-2.73.59-2.73 1.71 0 .98.98 1.51 2.1 1.51 1.76 0 3.22-1.12 3.22-3.07v-.4ZM126.1 50.44v7.02h-3.86v-13.8h3.85V46h.05a3.9 3.9 0 0 1 4.5-2.5v4c-.4-.14-.93-.24-1.52-.24-1.8-.04-3.03 1.22-3.03 3.18M142.14 57.46l-5.36-7.03v7.03h-3.86V36.43h3.86V49.7l5.36-6.05h4.5L140.87 50l5.95 7.47h-4.69ZM155.7 50h5.47v-1.27h-3.56l3.42-3.66v-1.41h-5.13v1.26h3.27l-3.41 3.66V50h-.05Zm-6.77 0h1.56v-3.47c0-.2.05-.44.1-.63.04-.2.14-.4.29-.54.1-.14.3-.3.44-.39.2-.1.39-.14.68-.14.25 0 .44.04.64.14.14.1.29.25.34.4.1.14.14.33.2.53.04.2.04.39.04.58V50h1.56v-3.96a2.83 2.83 0 0 0-.58-1.75c-.2-.24-.44-.44-.73-.59-.3-.14-.64-.2-1.08-.2a2 2 0 0 0-1.22.35c-.34.24-.58.54-.73.83h-.05v-1.02h-1.46V50Z" fill="#000"/></svg>