<svg fill="none" xmlns="http://www.w3.org/2000/svg" viewBox="0 0 245 104"><path fill-rule="evenodd" clip-rule="evenodd" d="M20.54 29.14h-.02l.02-.02v.02ZM33.99 70.17l.8-.01s.7-2.05.75-2.12c-.4-.17-1.21-.6-1.53-.8.21.3.72.66.62.94l-.64 2ZM27.48 61.17a.2.2 0 0 0-.21.18c0 .12.08.21.19.21.1.01.2-.07.21-.18a.2.2 0 0 0-.19-.2M36.47 76.46l-.88-2.44a23.98 23.98 0 0 0 3.67-1.47l-.54 1.78 1.84.6a22.08 22.08 0 0 1-4.09 1.53Zm-5.5 2.19c-2.13 0-4.57-.5-5.29-.75l1.1-2.95c.9.26 2.78.54 4.15.54H31c1.37 0 3.25-.28 4.16-.54l1.09 2.95c-.72.26-3.16.75-5.29.75Zm-9.59-3.71 1.84-.61-.54-1.78c.8.46 2.62 1.15 3.67 1.47l-.88 2.44a22.17 22.17 0 0 1-4.09-1.52Zm19.26-.55-1.12-.42.3-1.16.35-1.26s-1.98 1.08-4.77 1.88c-.79.23-1.39.33-1.39.33v.86s-1.5.26-3 .26h-.08c-1.51 0-3-.26-3-.26v-.86s-.6-.1-1.4-.33c-2.78-.8-4.76-1.88-4.76-1.88l.34 1.26.31 1.16-1.12.42-1.24.47c1.42.69 3.4 1.69 5.2 2.18l-.42 1.16s2.29 1.05 6.1 1.06H31c3.83-.01 6.11-1.06 6.11-1.06l-.42-1.16c1.8-.5 3.78-1.5 5.2-2.18l-1.24-.47ZM26.3 27.44l.51.05.22-.46.64-1.37 1.19.62.46.23.36-.36 1.28-1.27 1.29 1.27.37.36.46-.23 1.18-.62.65 1.37.21.46.5-.05.5-.06c-.23.5-.4.98-.5 1.37a9.75 9.75 0 0 0-4.66-1.12c-1.69 0-3.35.4-4.64 1.12a12 12 0 0 0-.5-1.37l.48.06Zm4.66.9c2.28 0 4.1.76 5.1 1.56 0 0 .3-1.8 1.32-3.38l-1.83.2-.96-2.03-1.84.95-1.79-1.76-1.78 1.76-1.84-.95-.96 2.04-1.83-.21c1.02 1.59 1.32 3.38 1.32 3.38a8.4 8.4 0 0 1 5.1-1.55ZM59.78 58.57s-.8 1.38-2.6 1.38h-.03c-2.18-.01-3.06-1.34-3.06-1.34s.13 1.73-.66 4.06a6.86 6.86 0 0 0 0 4.83s-.5.14-1.09.14c-.22 0-.45-.03-.68-.08-1.82-.44-2.27-2.1-2.27-2.1s.17 5.6-6.36 5.6h-.05s.57-.78.74-3.03c.31-4.15 3.13-4.72 3.13-4.72s-1.5-.2-2.16-.78c-1.01-.92-.94-1.98-.94-1.98 2.3-.04 3.8-.82 4.95-2.14a6.3 6.3 0 0 0 1.44-2.99s-1.23 1.12-3.62 1.12c-.21 0-.43 0-.67-.03-1.13-.1-1.9-.8-1.9-.8 2.48-1.6 4.22-4.38 2.68-8.57-1.24-3.36-4.22-5.87-7.22-7.76-1-.62-1.55-1.31-1.55-1.9 0-1.41 2-1.46 2.81-2.4.95-1.1.36-2.87-.46-3.94 0 0 .27-.05.7-.05.87 0 2.36.21 3.59 1.48 1.63 1.69.95 3.53.95 3.53l.44.08c.26.06.52.07.8.08h.17c2.36 0 3.42-2.47 3.42-2.47s2.52 3.1-1.19 5.52c-.63.42-.92.8-.84 1.21l.06.27.26.05c2.68.73 4.04 2.58 5.7 4.68a8.69 8.69 0 0 0 6.53 3.31h.05s-.82 2.57-3.21 2.57h-.12a3.13 3.13 0 0 1-1.66-.46s-.43 5.83 3.92 7.63Zm-2.14-6.39c2.94 0 3.92-2.99 3.96-3.12l.33-1.05-1.1.03a7.9 7.9 0 0 1-5.94-3l-.22-.28c-1.5-1.9-2.92-3.72-5.47-4.55.07-.07.18-.15.32-.25 1.35-.88 2.14-1.97 2.34-3.22a4.78 4.78 0 0 0-.97-3.45l-.82-1.01-.51 1.2c-.03.07-.9 2-2.7 2h-.14l-.36-.03c.07-.85-.09-2.18-1.3-3.43a5.74 5.74 0 0 0-4.14-1.72c-.5 0-.83.06-.86.07l-1.24.24.76 1c.6.78 1.14 2.21.5 2.96-.2.24-.63.43-1.03.62-.84.39-1.97.92-1.97 2.28 0 .88.68 1.8 1.92 2.58 3.66 2.3 5.91 4.7 6.9 7.36 1.5 4.08-.47 6.4-2.38 7.63l-.86.55.75.69c.1.09 1.02.9 2.38 1.01l.73.03c.87 0 1.61-.13 2.21-.32-.16.3-.37.6-.62.89-1.1 1.26-2.44 1.84-4.37 1.87l-.72.01-.06.72a3.4 3.4 0 0 0 1.88 3.06c-.86.77-1.73 2.12-1.9 4.42-.14 1.93-.6 2.64-.6 2.64l-.8 1.22 1.44.02c2.37 0 4.18-.66 5.44-1.95a6.16 6.16 0 0 0 1.42-2.4 3.86 3.86 0 0 0 2.5.91c.67 0 1.23-.14 1.3-.15l.91-.25-.4-.85c-.03-.07-.8-1.79.03-4.23.35-1.06.53-2.01.62-2.75.58.3 1.35.55 2.35.55 2.27 0 3.27-1.7 3.31-1.76l.45-.78-.83-.34c-2.7-1.13-3.3-4.14-3.42-5.77.24.05.52.09.84.1h.14Z" fill="#000"/><path fill-rule="evenodd" clip-rule="evenodd" d="M54.33 39.4c.55 0 1.19.18 1.8.8 1.89 1.92 3.65 2.03 3.65 2.03a2.53 2.53 0 0 1-2.21 1.33c-.22 0-.45-.03-.67-.1-1.3-.45-1.77-2.4-4.06-3.62 0 0 .64-.45 1.5-.45Zm-1.86 1.13a7.23 7.23 0 0 1 2.3 2.06c.55.68 1.07 1.33 1.89 1.6.29.1.6.15.91.15a3.3 3.3 0 0 0 2.93-1.79l.47-1.04-1.14-.07c-.05 0-1.52-.14-3.14-1.8a3.25 3.25 0 0 0-2.36-1.04c-1.06 0-1.85.53-1.94.59l-1.04.74 1.12.6ZM52.99 50.92v.04c-.66-5.33-4.53-9.17-8.83-11.5-.4-.22-.77-.4-1.12-.58 1.3.2 3.41.23 5.04-1.18 0 0-2.49 1.83-7.6.17 1.42.91 4.17 2.2 6.67 4.3 6.27 5.5 1.79 10.88 1.79 10.88a6.59 6.59 0 0 0 1.68-6.93 12.87 12.87 0 0 1 1.82 7.33c-.17 4.23-2.5 7.89-4.94 10.83-1.18 1.42-1.44 3.18-1.44 3.18s.47-1.55 1.83-3.14c2.63-3.07 4.87-6.26 5.16-10.86.27.84 1.4 3.15 3.16 4.03 0 0-2.22-1.34-3.22-6.57M18.9 71.06c-6.52 0-6.36-5.6-6.36-5.6s-.45 1.66-2.27 2.1c-.22.05-.45.08-.68.08-.58 0-1.1-.14-1.1-.14s.96-2.01.01-4.83c-.78-2.33-.65-4.06-.65-4.06s-.88 1.33-3.06 1.34h-.03c-1.81 0-2.6-1.38-2.6-1.38 4.35-1.8 3.92-7.63 3.92-7.63s-.56.42-1.67.46H4.3c-2.4 0-3.22-2.57-3.22-2.57h.05c.45 0 4-.1 6.53-3.3 1.66-2.11 3.02-3.96 5.7-4.7l.27-.04.06-.27c.07-.41-.2-.8-.85-1.2-3.7-2.44-1.19-5.53-1.19-5.53s1.06 2.47 3.43 2.47h.17c.27-.01.53-.02.8-.08l.43-.08s-.68-1.84.96-3.53a4.92 4.92 0 0 1 3.58-1.48c.43 0 .7.05.7.05-.81 1.07-1.4 2.85-.46 3.94.82.94 2.81.99 2.81 2.4 0 .59-.55 1.28-1.55 1.9-3 1.9-5.98 4.4-7.21 7.76-1.55 4.19.2 6.97 2.68 8.56 0 0-.78.72-1.91.81l-.67.03c-2.38 0-3.62-1.12-3.62-1.12s.2 1.55 1.44 2.99c1.16 1.32 2.66 2.1 4.96 2.14 0 0 .07 1.06-.95 1.98-.65.59-2.15.78-2.15.78s2.81.57 3.12 4.72c.17 2.25.74 3.03.74 3.03h-.04Zm.7-.45s-.46-.72-.6-2.64c-.17-2.3-1.05-3.65-1.9-4.42a3.39 3.39 0 0 0 1.87-3.06l-.05-.72h-.72c-1.93-.04-3.28-.62-4.37-1.88-.25-.3-.46-.6-.63-.89a7.5 7.5 0 0 0 2.95.3 4.33 4.33 0 0 0 2.37-1.02l.76-.69-.86-.55c-1.92-1.23-3.88-3.55-2.37-7.63.97-2.65 3.23-5.06 6.9-7.36 1.23-.78 1.9-1.7 1.9-2.58 0-1.36-1.13-1.9-1.96-2.28-.4-.2-.83-.38-1.03-.62-.65-.75-.1-2.18.5-2.95l.76-1-1.24-.25c-.04 0-.36-.07-.86-.07-.93 0-2.7.23-4.15 1.72a4.37 4.37 0 0 0-1.3 3.43l-.36.02h-.13c-1.81 0-2.67-1.92-2.7-2l-.51-1.2-.83 1.02c-.05.06-1.25 1.57-.96 3.45.2 1.25.98 2.34 2.34 3.22l.32.25c-2.55.82-3.98 2.64-5.48 4.55l-.22.28a7.9 7.9 0 0 1-5.93 3L0 48.01l.34 1.05c.04.13 1.02 3.12 3.96 3.12h.14c.31-.01.6-.05.84-.1-.12 1.63-.72 4.65-3.43 5.77l-.82.34.44.78c.05.07 1.05 1.76 3.32 1.76 1 0 1.77-.25 2.35-.55.08.74.27 1.69.62 2.74.82 2.45.06 4.17.03 4.24l-.4.85.9.25c.07.01.63.15 1.3.15a3.84 3.84 0 0 0 2.5-.92c.25.77.68 1.64 1.42 2.4 1.27 1.3 3.08 1.96 5.45 1.96l1.44-.02-.8-1.22Z" fill="#000"/><path fill-rule="evenodd" clip-rule="evenodd" d="M5.81 40.2c.6-.63 1.25-.81 1.8-.81.84 0 1.48.45 1.48.45-2.28 1.21-2.76 3.17-4.06 3.61-.22.08-.44.1-.66.1-.96 0-1.9-.61-2.21-1.32 0 0 1.76-.11 3.65-2.03m-1.44 4.14c.31 0 .62-.05.91-.15.82-.27 1.34-.92 1.9-1.6.56-.7 1.19-1.48 2.29-2.06l1.12-.6-1.04-.74c-.1-.06-.88-.59-1.94-.59-.88 0-1.69.36-2.36 1.04-1.63 1.66-3.09 1.8-3.14 1.8l-1.13.07.46 1.04a3.3 3.3 0 0 0 2.93 1.79M9.5 53.45c-.13-2.96.63-5.35 1.82-7.33A6.58 6.58 0 0 0 13 53.05s-4.48-5.37 1.79-10.88c2.5-2.1 5.24-3.39 6.66-4.3-5.1 1.66-7.6-.17-7.6-.17 1.63 1.41 3.74 1.39 5.05 1.18-.35.18-.73.36-1.12.57-4.3 2.34-8.17 6.18-8.83 11.5v-.03c-1 5.23-3.23 6.57-3.23 6.57 1.77-.88 2.89-3.2 3.16-4.03.3 4.6 2.54 7.79 5.16 10.86 1.36 1.59 1.84 3.14 1.84 3.14s-.27-1.76-1.45-3.18C12 61.34 9.67 57.68 9.5 53.45M29.5 42.68v1.05c.36-.44 1.06-.35 1.06-.35v1.52s-.02.75-.29 1.08h1.53c-.27-.33-.3-1.08-.3-1.08v-1.52s.71-.09 1.07.35v-1.05H29.5ZM28.84 36.41c.48.39.77.45.77.46l.2.09v-1l-1.8-.75s.02.58.83 1.2M33.1 36.41c.8-.62.82-1.2.82-1.2l-1.8.75v1l.2-.1s.29-.06.78-.45" fill="#000"/><path fill-rule="evenodd" clip-rule="evenodd" d="m30.97 33.76-4.31-1.7c.36-.87 2.05-1.6 4.3-1.6 2.26 0 3.95.73 4.32 1.6l-4.31 1.7Zm3.2 5.34-2.89 1.53v-6.19l3.93-1.33-1.03 5.99Zm1.8 1.64 1.33.77h.02l.33.2a3.9 3.9 0 0 0-1.8 1.07l-.05.05-.33.37-.06.08-.29.41-.05.07-.32.52c-.94 1.63-2.45 2.6-3.79 2.6-1.33 0-2.84-.97-3.78-2.6-.1-.17-.2-.34-.32-.5l-.06-.1-.28-.4-.07-.08-.31-.37-.06-.05a3.9 3.9 0 0 0-1.8-1.07l.34-.2h.01l1.33-.77 1.36-.78 3.64 1.98h.02l3.63-1.98 1.36.78Zm5.23 5.5c-.3.79-.54 1.63-.54 2.48v5.44c-1.13-.2-1.27-1.42-1.27-1.47l-.02-.25-.25-.02c-.5-.05-.82-.26-1.1-.53a2.3 2.3 0 0 1-.55-1.46c-.01.04-.62.9.08 1.82.3.39.73.63 1.28.72.13.68.64 1.64 1.83 1.79v2.66h-3.35c-1.55-.86-.9-2.38-.86-2.44l.13-.29-.3-.11c-1.67-.62-1.21-2.3-1.19-2.36l.07-.25-.23-.1c-1.38-.65-1.2-2.37-1.18-2.45-.42.35-.58 1.05-.28 1.74l-.6.64a1.88 1.88 0 0 1-1.49-1.74v-.2l-.19-.07c-.56-.21-.94-.52-1.13-.94a1.84 1.84 0 0 1-.08-1.18c.16.04.33.06.48.08.17.01.33.03.5.03h.02l.5-.03c.88-.1 1.88-.47 2.92-1.5h6.8ZM37 69.95l.38-1.95.06-.36a2.1 2.1 0 0 0 .72.14c.58 0 .91-.3 1.13-.55l.29-.34-.23-.36a35.52 35.52 0 0 0-1.17-1.77c-.46-.68-1.03-1.53-2.17-1.53h-.1c-.19.02-.35.05-.48.1a2.6 2.6 0 0 0-1.11-.25c-.48 0-.87.13-1.14.22l-.2.05-2.13-.2c-.03-.01-.11-.06-.22-.19l.46-.2c-.13-1.53-1.6-2.48-2.43-2.8a.87.87 0 0 0-.24-.43l-.45-.43-.4.48-.2.25-3-1.23 1.95 2.44-.77 1.16c-.28.3.03.6.03.6l.8.54.82-.3h.08c-.04.13-.1.62-.13.76l-1.42-.28-1.5.84c-.77.57-.87 1.5-.59 2.14l.17.37.23.51.53-.22h.02c-.2.6-.11 1.17.22 1.54l.32.4.42.54.47-.5c.13-.14.58-.63.71-1.06l.1-.32-.22-.25-.04-.05.25-.42 1.86.44.42.1.23-.37.12-.2c.02-.05.03-.05.11-.05a3.75 3.75 0 0 0 3.41.07l1.04 1.17-.61 1.9-.03.1c-1.16.1-1.72.35-2.4 1.04-1-.99-1.7-1.1-4.36-1.1-3.18 0-5.34-1.86-5.34-4.84V58h19.39v7.3c0 2.42-1.42 4.1-3.65 4.65Zm-11.93-4.12.1.25c-.07.22-.83.53-.83.53l-.16-.35a1.19 1.19 0 0 1 .39-1.42l1.23-.75 1.3.28c-.03.41.22.72.22.72l-1.36-.26-.82.56c-.14.1-.15.28-.07.44ZM36.8 67.9l-.41 2.18-.84.07.44-2.1c.13-.62-1.55-.82-2.37-2.04-.4.45-1.16.59-1.93.59-.7 0-1.4-.11-1.82-.2a1.9 1.9 0 0 0-.3-.03c-.25 0-.47.08-.63.34l-.12.2-2.28-.53-.56.94c-.08.15-.09.27.04.42l.15.17c-.1.33-.58.83-.58.83l-.34-.42c-.26-.3-.22-.85.06-1.36l.9-1.53 1.93.28-.3-.68c-.4-.9.22-2.06.28-2.72-.02.2-.2.25-.42.25-.2 0-.41-.04-.56-.04-.05 0-.1 0-.13.02l-.52.32-.41-.36c-.05-.07-.07-.24.05-.36l.96-1.07-1.13-1.32 1.58.8.48-.6c.13.14.08.48.08.48.49.01 1.87.77 1.95 2.56v.18l.04.05c.1.14.36.48.7.51l2.2.22c.24 0 .72-.28 1.33-.28.33 0 .7.08 1.1.33 0 0 .2-.15.52-.17H36c.98 0 1.39.88 1.92 1.62.39.56.92 1.39.92 1.39-.2.23-.38.36-.68.36-.08 0-.18 0-.28-.03-1.05-.2-1.2-2.35-1.8-2.52a.4.4 0 0 0-.1-.02c-.2 0-.28.18-.28.18.28.73.12 1.03.41 1.6.22.42.61.77.77.93 0 0-.04.32-.09.56Zm-2 2.26-.81.01.64-2c.1-.27-.41-.62-.62-.93.32.2 1.13.63 1.53.8-.04.07-.75 2.12-.75 2.12ZM25.27 52.2l.1-3.47.77-.82.49 1.02-.96 3.33-.4-.06Zm.56 1.07c.13.27.36.45.52.55a6.38 6.38 0 0 1-.15 1.2l-.04.1c-.23 0-.7-.02-1.08-.16-.42-.16-1.05-.93-.91-1.79.18-.11.6-.35 1-.35.3 0 .52.15.66.45Zm9 .94a216 216 0 0 1-2.7 1.95l-5.37-.96a6.03 6.03 0 0 0 .18-1.26l4.52.08.09-.1c.07-.06 1.5-1.44 2.23-2.24.17.22.39.43.68.6-.1.54-.06 1.3.37 1.93Zm-7.3-7.97a5.26 5.26 0 0 0 1.87 1.26c-.07.31-.18.95.11 1.6.24.5.67.9 1.29 1.17.07.63.47 1.59 1.58 2l-1.15 1.15-4.51-.07a.8.8 0 0 1-.36-.33l-.03-.06.74.12h.04c.14 0 .27-.1.3-.24a.3.3 0 0 0-.25-.34l-.9-.14 1-3.47-.95-2-1.53 1.6-.1 3.61-1.02-.16c-.16-.03-.3.09-.34.25a.3.3 0 0 0 .25.33l.43.07-.27.17-.08.06-.03.1a2.37 2.37 0 0 0 .93 2.4l-.03.14c-.02.15.01.3.1.43a.57.57 0 0 0 .48.24c.26 0 .5-.18.56-.45.22.03.43.04.57.04h.13l5.91 1.07.1-.07 2.86-2.07c.16.14.35.26.56.37-.19.64-.2 1.62.56 2.4H21.27v-8.7c0-.85-.24-1.7-.53-2.48h6.8Zm-.83-13.13 3.94 1.33v6.19l-2.9-1.53-1.04-6Zm9.6-.74c0-1.51-2.53-2.87-5.34-2.87h-.01c-2.8 0-5.34 1.36-5.34 2.87l.05.37 1.12 6.42-1.12.65-2.91 1.7s-.65.34-.95.55c-1.1.76-1.34 1.89-.7 2.35a2.2 2.2 0 0 1 2.24-1.87c.97 0 1.72.5 2.32 1.26.15.19.3.4.43.61.17.28.34.52.51.75h-7.5a8.09 8.09 0 0 1 1.08 3.56V65.3c0 4.01 3.09 5.93 6.43 5.93 2.58 0 2.93-.12 4.35 1.3 1.42-1.42 1.76-1.3 4.35-1.3 3.34 0 6.42-1.92 6.42-5.93V48.72c0-1.28.52-2.45 1.08-3.56h-7.5c.17-.23.34-.47.5-.75a7 7 0 0 1 .44-.61c.6-.76 1.35-1.26 2.33-1.26a2.2 2.2 0 0 1 2.23 1.87c.65-.46.41-1.59-.7-2.35-.3-.21-.96-.55-.96-.55h.01l-2.9-1.7-1.13-.65 1.12-6.42.06-.37ZM161.68 53.46v6.83h5.39c1.29 0 2.25-.3 2.87-.92.63-.62.94-1.45.94-2.51 0-1.1-.36-1.94-1.1-2.52a4.3 4.3 0 0 0-2.77-.88h-5.33Zm0-7.47v5.54H167c.98 0 1.75-.27 2.3-.81a2.7 2.7 0 0 0 .83-2c0-.83-.25-1.49-.76-1.99-.5-.5-1.25-.74-2.26-.74h-5.43ZM173 56.82c0 1.73-.52 3.07-1.56 4-1.04.93-2.52 1.4-4.43 1.4h-7.3V44.05h7.42c1.53 0 2.77.39 3.7 1.16.95.77 1.42 1.88 1.42 3.32 0 .84-.24 1.6-.7 2.31-.48.7-1.13 1.2-1.95 1.48v.08a4.43 4.43 0 0 1 2.44 1.54 4.47 4.47 0 0 1 .96 2.87ZM183.62 56.4a9.42 9.42 0 0 0-1.66-.76 6.33 6.33 0 0 0-2-.28c-.89 0-1.64.24-2.25.71a2.44 2.44 0 0 0-.92 2.05c0 .9.26 1.57.78 2.04.52.46 1.27.7 2.25.7a4.84 4.84 0 0 0 2.07-.6 7.31 7.31 0 0 0 1.73-1.27v-2.6Zm-2.92-8.04c1.58 0 2.79.37 3.63 1.1.85.74 1.27 1.84 1.27 3.3v9.46h-1.98v-1.34h-.05a5.6 5.6 0 0 1-2.16 1.28c-.72.2-1.4.3-2.05.3-.54 0-1.08-.07-1.62-.23a4.3 4.3 0 0 1-1.46-.75 3.8 3.8 0 0 1-1.06-1.32c-.27-.53-.4-1.2-.4-1.97a3.94 3.94 0 0 1 1.44-3.18c.44-.38.98-.67 1.6-.88.63-.2 1.31-.3 2.05-.3.6 0 1.2.06 1.8.17.6.12 1.24.36 1.91.73v-1.69c0-1.05-.26-1.81-.79-2.29s-1.32-.72-2.37-.72c-.67 0-1.29.09-1.86.25-.58.17-1.15.4-1.72.67l-.67-1.55c.65-.3 1.33-.56 2.06-.75.72-.2 1.53-.29 2.43-.29ZM199.32 62.22h-1.98v-8.17a4.9 4.9 0 0 0-.75-2.94c-.5-.68-1.32-1.02-2.45-1.02-.84 0-1.56.27-2.15.82a4.05 4.05 0 0 0-1.34 3.2v8.1h-1.98v-13.6h1.98v1.93l.06.02a4.42 4.42 0 0 1 1.86-1.68 5.07 5.07 0 0 1 2.14-.52c1.57 0 2.73.46 3.49 1.38.75.92 1.12 2.26 1.12 4v8.48ZM206.13 54.91l6.16-6.27h-2.26l-5.85 6.02V42.92l-1.98.9v18.4h1.98v-6.95l5.9 6.95h2.38l-6.33-7.3ZM68.52 45.97h5.3V62.2h3.79V45.97h5.12V42.8h-14.2v3.17ZM120.18 48.66h-4.15l-4.88 5.78V43.22l-3.61 1.3v17.7h3.6v-6.64l4.77 6.63h4.3l-5.36-7.29 5.33-6.26ZM130.07 57.06c-.14.5-.33.94-.58 1.32a2.54 2.54 0 0 1-2.22 1.21c-.98 0-1.73-.36-2.24-1.1a5.3 5.3 0 0 1-.78-3.1c0-1.19.25-2.17.75-2.95a2.44 2.44 0 0 1 2.19-1.17 2.6 2.6 0 0 1 2.3 1.16c.52.77.78 1.77.78 3.02 0 .57-.07 1.11-.2 1.61m2-6.82a5.8 5.8 0 0 0-2.11-1.4 7.22 7.22 0 0 0-2.69-.5c-.97 0-1.87.17-2.69.5a6.04 6.04 0 0 0-3.49 3.61 8.7 8.7 0 0 0-.48 3c0 1.07.15 2.05.47 2.92a5.87 5.87 0 0 0 3.4 3.65c.81.33 1.73.5 2.74.5.97 0 1.86-.17 2.68-.49a5.95 5.95 0 0 0 3.5-3.65c.34-.88.51-1.88.51-2.99a8.3 8.3 0 0 0-.49-2.92 6.45 6.45 0 0 0-1.36-2.23M86.37 42.8c-.62 0-1.13.2-1.55.61a2.03 2.03 0 0 0 0 2.94c.42.41.93.62 1.55.62.58 0 1.08-.2 1.5-.62a2 2 0 0 0 0-2.94c-.42-.4-.92-.61-1.5-.61M84.54 62.21h3.64V48.62h-3.64v13.6ZM99.44 48.5a5.6 5.6 0 0 0-4.15 1.25v-1.12h-3.64v13.58h3.64v-8.1a2.53 2.53 0 0 1 2.57-2.48 2.53 2.53 0 0 1 2.57 2.49v8.1h3.63v-8.04c0-4.26-2.47-5.52-4.62-5.68M137.37 48.35v.25h-2.18v2.79h2.18V62.2h3.64V51.39h2.18V48.6h-2.17v-.28c0-1.88.87-2.8 2.6-2.53l.56-2.8c-5.54-.67-6.8 2.28-6.8 5.36M146.77 48.35v.25h-2.18v2.79h2.18V62.2h3.64V51.39h2.17V48.6h-2.17v-.28c0-1.88.88-2.8 2.6-2.53l.56-2.8c-5.53-.67-6.8 2.28-6.8 5.36" fill="#000"/></svg>