<svg fill="none" xmlns="http://www.w3.org/2000/svg" viewBox="0 0 245 104"><path d="m17.05 48.55-16 12.62A9.95 9.95 0 0 1 5.77 47.7a10.03 10.03 0 0 1 4.54-1 13.23 13.23 0 0 1 15-11.62c5.38.67 9.76 4.37 11.27 9.6a9.05 9.05 0 0 1 4.72-1.35c2.02 0 3.7.67 5.22 1.68L36.08 55.45a4.92 4.92 0 0 0-1.52-.34c-.67 0-1.18.17-1.85.34l-7.58-6.74a4.16 4.16 0 0 0-7.91-2.52 3.86 3.86 0 0 0-.17 2.36Zm33.5 3.7c0-1.68-.67-3.37-1.68-4.88L38.43 57.8c.34.85.34 1.86.17 2.87a4.16 4.16 0 0 1-7.91-2.53l-7.75-6.73c-.5.33-1.18.33-1.85.33-.67 0-1.35-.16-2.02-.5l-16 12.8a9.93 9.93 0 0 0 7.08 2.86h37.88c3.2 0 6.06-2.02 7.07-5.05a7.43 7.43 0 0 0-4.54-9.6Zm26.61-11.62H62.18v2.86h5.72v15.16h3.2V43.49h6.06v-2.86Zm2.36 6.06v-1.17h-3.03v13.13h3.03v-7.58c0-1 .34-1.68.84-2.36a2.33 2.33 0 0 1 1.85-1c.68 0 1.35.16 1.86.5l1.34-2.7c-.5-.33-1.34-.5-2.35-.5-1.52.17-2.7.67-3.54 1.68Zm18.02 11.28c-.34.5-.5.68-.84.85-.34.16-.68.16-1.02.16-.5 0-.84-.16-1.17-.5-.34-.34-.68-.68-.68-1.01-.33.5-.84.84-1.51 1.18-.68.33-1.35.5-2.2.5a5.34 5.34 0 0 1-3.36-1c-.84-.68-1.18-1.7-1.18-3.04 0-1.51.5-2.7 1.69-3.53 1.17-.85 2.69-1.35 4.88-1.35.34 0 .84 0 1.35.17 0-1.52-1.01-2.36-3.03-2.36-1.18-.34-2.03 0-2.87.34l-.67-2.36a8.57 8.57 0 0 1 3.7-.84c2.02 0 3.54.5 4.38 1.35 1.01.84 1.35 2.69 1.35 5.21v2.87c.17 1.85.5 2.86 1.18 3.36Zm-4.04-5.55c-.5-.17-.85-.17-1.18-.17-2.36 0-3.7.84-3.7 2.36 0 1.17.67 1.85 2.01 1.85 1.86 0 2.7-.84 2.7-2.7v-1.34h.17Zm14.81-11.96 3.03-.67v18.86h-3.03v-.85c-.33.34-.67.51-1.34.68-.68.17-1.18.34-1.86.34-1.85 0-3.36-.51-4.37-1.69-1.01-1.18-1.52-2.86-1.52-4.88s.67-3.7 1.85-5.05a5.77 5.77 0 0 1 4.55-2.02c1.01 0 1.85.17 2.7.67v-5.39Zm0 8.09a3.5 3.5 0 0 0-2.02-.85c-1.18 0-2.19.34-2.86 1.18-.67.68-1.01 1.85-1.01 3.2 0 2.7 1.35 4.04 4.04 4.04.34 0 .68-.17 1.01-.34.5-.16.67-.33.84-.5v-6.73Zm5.4-.51h1.68v10.6h3.2V45.53h-4.89v2.52Zm3.2-7.74c-.51 0-.85.16-1.36.5-.33.34-.5.84-.5 1.35 0 .5.17.84.5 1.34.34.34.85.51 1.35.51.5 0 1.01-.34 1.35-.67.33-.34.5-.85.5-1.35 0-.5-.17-.84-.5-1.35a3.17 3.17 0 0 0-1.35-.33Zm11.61 4.88c-1.68 0-2.86.5-3.7 1.51l-.51-1.17h-2.19v13.13h3.03v-9.6c.34-.34.67-.67 1.18-.84.5-.34 1.01-.34 1.52-.34 1 0 1.68.34 2.19.84.5.5.67 1.35.67 2.53v7.58h3.03v-8.25c0-1.69-.5-3.03-1.35-3.88a5.07 5.07 0 0 0-3.87-1.51Zm19.2 1.18-1.52 1a5.09 5.09 0 0 1-.5 6.24 4.82 4.82 0 0 1-3.54 1.34H140.82l-.68.34c-.34.17-.5.34-.5.5 0 .34.33.51.84.51.33 0 .67 0 1.34-.17.68-.17 1.18-.17 1.52-.17 3.03 0 4.54 1.18 4.54 3.54 0 1.35-.67 2.36-1.85 3.2a8.34 8.34 0 0 1-4.54 1.18 9.57 9.57 0 0 1-5.56-1.86l2.02-2.35a5.13 5.13 0 0 0 3.54 1.51c.84 0 1.68-.17 2.18-.33.5-.17.85-.68.85-1.01 0-.85-.68-1.18-1.86-1.18-.33 0-.84 0-1.51.17-.68 0-1.18.16-1.52.16-2.19 0-3.2-.84-3.2-2.35 0-.5.17-.85.5-1.35.34-.34.85-.67 1.19-.84a4.65 4.65 0 0 1-2.2-4.21c0-1.35.51-2.53 1.52-3.54a6 6 0 0 1 3.88-1.34c1.18 0 2.19.17 3.03.67l1.18-1.35 2.19 1.69Zm-3.88 3.7c0-.67-.17-1.18-.67-1.68s-1.01-.68-1.68-.68c-.68 0-1.35.17-1.69.68-.5.5-.67 1-.67 1.68 0 .84.17 1.35.67 1.85s1.01.68 1.69.68c.67 0 1.34-.17 1.68-.68a2.7 2.7 0 0 0 .67-1.85Zm11.96 2.7-4.21-12.13h-3.54l6.74 18.35h1.68l7.07-18.35h-3.53l-4.21 12.12Zm8.25-4.72h1.68v10.6h3.2V45.53h-4.88v2.52Zm3.37-7.74c-.5 0-.85.16-1.35.5-.34.34-.5.84-.5 1.35 0 .5.16.84.5 1.34.34.34.84.51 1.35.51.5 0 .84-.17 1.34-.5.34-.34.5-.85.5-1.35 0-.5-.16-.84-.5-1.35-.5-.34-1-.5-1.34-.5Zm15.32 6.56a5.7 5.7 0 0 1 1.68 4.38c0 .34-.17 1-.33 1.68h-9.43c0 1.01.33 1.85 1 2.53.68.67 1.52.84 2.7.84 1.35 0 2.53-.34 3.2-1.18l1.18 2.36c-1.01.84-2.7 1.35-4.88 1.35a6.34 6.34 0 0 1-4.72-1.86c-1.18-1.18-1.68-2.86-1.68-4.88s.67-3.7 1.85-5.05a6.22 6.22 0 0 1 4.71-1.85c2.02 0 3.54.67 4.72 1.68Zm-1.35 3.87c-.17-1.85-1.34-2.86-3.2-2.86-1.68 0-2.86 1.01-3.2 2.86h6.4Zm20.55-5.21-2.87 7.9-3.37-7.9h-1.17l-3.2 7.9-2.7-7.9h-3.2l5.06 13.46h1.17l3.54-8.08 3.7 8.08h1.18l5.05-13.46h-3.2Z" fill="#000"/></svg>