<svg fill="none" xmlns="http://www.w3.org/2000/svg" viewBox="0 0 245 104"><g fill="#000"><path d="m138.54 60.55-5.23 8.93h-6.25l8.17-13.76-7.86-12.64h6.93l4.96 7.97 4.45-7.97h6.15l-7.34 12.8 8.48 13.6h-6.93l-5.53-8.93Zm-27.72-6.66h8.58v-.53c0-3.3-.93-5.87-3.98-5.87-2.95 0-4.45 2.2-4.6 6.4ZM116.77 70c-7.86 0-12.31-4.46-12.31-13.65 0-7.97 3.57-13.8 11.07-13.8 6.15 0 10.13 3.47 10.13 12.65v3.3h-14.84c.26 4.41 1.96 6.57 6.46 6.57 3 0 6.2-1.16 8.12-2.47v5.1c-1.8 1.25-4.7 2.3-8.63 2.3ZM84.14 56.46c0 5.98 1.65 8.6 5.01 8.6 3.47 0 5.22-2.67 5.22-8.81 0-6.09-1.65-8.76-4.96-8.76-3.52 0-5.27 2.72-5.27 8.97Zm-6.37 0c0-8.82 4.14-13.9 10.09-13.9a7.57 7.57 0 0 1 6.51 3.61V33h6.16v36.48h-5.69l-.31-3.42C92.87 68.64 90.5 70 87.6 70c-5.8 0-9.83-4.83-9.83-13.54ZM59.16 69.48H53v-26.4h6l.16 2.2h.3c1.25-1.26 3.42-2.62 7.1-2.62 5 0 7.08 2.3 7.08 7.55v19.27h-6.16V50.84c0-1.99-.98-2.93-3.15-2.93a6.7 6.7 0 0 0-5.17 2.62v18.95ZM41.83 57.14h-.87c-5.28 0-7.4 1.1-7.4 4.2 0 2.36 1.3 3.94 3.88 3.94 2.17 0 3.62-.95 4.4-2.1v-6.04ZM48 63.02c0 2.15.1 4.3.3 6.46H42.3a8.34 8.34 0 0 1-.47-2.1h-.25c-1.2 1.26-2.74 2.46-6.36 2.46-4.76 0-7.97-2.99-7.97-8.34 0-5.36 4.19-8.5 13.6-8.5h.98v-1.47c0-2.84-1.34-3.89-4.29-3.89-3.15 0-6.77 1.37-8.43 2.63v-5.2a18.2 18.2 0 0 1 9.16-2.41c6.51 0 9.72 2.41 9.72 8.81v11.55ZM12.1 69.48V65.8c0-4.98-.57-7.45-2.53-11.75L0 33h6.62l8.12 18c2.38 5.25 3.41 7.98 3.41 14.01v4.47H12.1Zm3.88-18.85L23.53 33h6.36l-7.65 17.63h-6.26Z"/></g></svg>